<svg xmlns="http://www.w3.org/2000/svg"  viewBox="0 0 48 48" width="48px" height="48px"><linearGradient id="SVGID_1_" x1="37.265" x2="15.95" y1="13.86" y2="35.175" gradientUnits="userSpaceOnUse"><stop offset="0" stop-color="#60affe"/><stop offset=".15" stop-color="#7fbffe"/><stop offset=".436" stop-color="#b6daff"/><stop offset=".684" stop-color="#deeeff"/><stop offset=".88" stop-color="#f6faff"/><stop offset="1" stop-color="#fff"/></linearGradient><path fill="url(#SVGID_1_)" d="M30.667,36.777c-0.916-3.664,1.434-5.687,1.949-6.079c3.204-0.72,5.6-3.578,5.6-6.999	c0-7.836-10.281-8.188-11.208-8.204c0.592-0.693,0.963-1.582,0.963-2.565c0-0.569-0.124-1.107-0.339-1.596l1.962-2.649	c0.611-0.824,0.526-1.971-0.2-2.696L29.38,5.976c-1.13-1.13-2.662-1.764-4.259-1.764h-2.257c-1.569,0-3.077,0.6-4.217,1.677	c-0.752,0.711-0.871,1.866-0.264,2.704l1.985,2.742c-0.215,0.489-0.339,1.026-0.339,1.595c0,0.984,0.371,1.872,0.964,2.566	C9.787,15.532,9.785,23.699,9.785,23.699c0,3.782,2.926,6.873,6.636,7.152c-0.157,1.641-0.373,11.507,17.004,12.934	c0.984,0.081,1.491-1.169,0.712-1.777C32.71,40.895,31.277,39.22,30.667,36.777z"/><circle cx="24" cy="13" r="3.5" fill="none" stroke="#2e9bfe" stroke-linecap="round" stroke-linejoin="round" stroke-width="3"/><line x1="18.5" x2="29.5" y1="22.5" y2="22.5" fill="none" stroke="#2e9bfe" stroke-linecap="round" stroke-linejoin="round" stroke-width="3"/><path fill="none" stroke="#2e9bfe" stroke-linecap="round" stroke-linejoin="round" stroke-width="3" d="M24,22.5c0,3.866-2.634,8-6.5,8s-7-3.134-7-7c0,0,0-8,11-8"/><path fill="none" stroke="#2e9bfe" stroke-linecap="round" stroke-linejoin="round" stroke-width="3" d="M33.728,16.79c2.487,1.08,4.772,3.064,4.772,6.71c0,3.866-3.134,7-7,7s-7.5-4.134-7.5-8"/><path fill="none" stroke="#2e9bfe" stroke-linecap="round" stroke-linejoin="round" stroke-width="3" d="M32.5,30.5c0,0-3,2-2,6c1.372,5.488,7,7,7,7c-13.532,0-18.368-4.47-20.053-8.169"/><path fill="none" stroke="#2e9bfe" stroke-linecap="round" stroke-linejoin="round" stroke-width="3" d="M20.5,11.5l-1.975-2.728c-0.587-0.811-0.484-1.931,0.241-2.621l0,0c1.113-1.06,2.591-1.651,4.128-1.651h2.154	c1.571,0,3.079,0.618,4.199,1.72l0.013,0.013c0.711,0.699,0.798,1.815,0.204,2.616L27.5,11.5"/></svg>