<svg version="1.1" id="Layer_1" xmlns="http://www.w3.org/2000/svg" xmlns:xlink="http://www.w3.org/1999/xlink" x="0px" y="0px"
	 width="100%" viewBox="0 0 344 219" enable-background="new 0 0 344 219" xml:space="preserve">
<path fill="#FDFEFE" opacity="1.000000" stroke="none" 
	d="
M216.000000,220.000000 
	C144.000015,220.000000 72.500015,220.000000 1.000019,220.000000 
	C1.000013,147.000015 1.000013,74.000038 1.000006,1.000039 
	C115.666634,1.000026 230.333267,1.000026 344.999939,1.000013 
	C344.999939,73.999962 344.999939,146.999924 344.999969,219.999939 
	C302.166656,220.000000 259.333344,220.000000 216.000000,220.000000 
M220.016357,87.983292 
	C220.016357,87.983292 220.093430,87.949005 219.912643,87.446716 
	C219.623199,87.248444 219.333755,87.050171 218.946548,86.095909 
	C217.320694,81.370125 215.694839,76.644333 214.026459,71.951233 
	C214.026459,71.951233 214.072037,71.971901 213.945404,71.379684 
	C213.673615,71.086800 213.401825,70.793907 213.178162,69.988861 
	C213.075699,69.663177 212.973236,69.337494 212.757324,68.330612 
	C211.535492,66.145821 210.313644,63.961033 208.965256,61.103359 
	C206.731827,58.004124 204.498398,54.904892 202.232101,51.838375 
	C202.232101,51.838375 202.187302,51.845360 202.073090,51.207233 
	C201.070999,50.084595 200.068924,48.961952 198.889236,47.419304 
	C198.710449,47.150013 198.461975,46.986790 197.932571,46.298462 
	C197.053024,45.769039 196.173477,45.239616 195.279617,44.940617 
	C195.279617,44.940617 195.269638,44.712791 195.249237,44.033497 
	C193.935883,43.260609 192.622543,42.487717 191.235947,41.700657 
	C191.235947,41.700657 191.267960,41.633270 191.228119,40.979630 
	C188.142319,38.342930 185.056503,35.706234 181.980087,33.000374 
	C181.980087,33.000374 181.919312,33.034676 181.614441,32.538677 
	C181.085144,32.325394 180.555862,32.112106 179.586685,31.367292 
	C176.717316,29.931658 173.847946,28.496025 170.471954,26.574827 
	C164.333298,24.709148 158.194641,22.843472 151.396164,20.532124 
	C143.273972,20.348721 135.151794,20.165318 127.006348,19.990137 
	C127.006348,19.990137 127.000359,20.001610 126.176086,19.886311 
	C124.092697,20.246058 122.009315,20.605806 119.442123,20.935055 
	C119.442123,20.935055 118.987328,21.102837 118.229378,21.033928 
	C116.142441,21.639322 114.055496,22.244717 111.187401,22.912052 
	C106.444839,24.905415 101.702278,26.898777 96.249443,28.991631 
	C90.550819,33.018730 84.852203,37.045830 78.551910,41.370647 
	C73.348869,47.904591 68.145836,54.438530 62.386570,61.376289 
	C61.308704,63.439098 60.118031,65.451500 59.170300,67.572464 
	C48.906288,90.542610 47.703518,113.675537 58.066349,137.714752 
	C62.997070,145.242432 67.927788,152.770111 73.038857,160.924149 
	C77.555305,164.705414 82.071762,168.486679 86.658798,172.252228 
	C86.658798,172.252228 86.719185,172.210983 86.825172,172.850922 
	C87.182899,173.087372 87.540627,173.323822 88.012596,173.879120 
	C88.173859,174.072495 88.377945,174.144577 88.953529,174.567123 
	C89.303223,174.703888 89.652916,174.840652 90.398201,175.524933 
	C92.207764,176.515976 94.017326,177.507004 96.325676,178.934525 
	C102.884430,181.297668 109.443184,183.660828 116.610153,186.489807 
	C121.064133,187.047821 125.518112,187.605835 130.672012,188.576065 
	C135.783981,188.303619 140.895935,188.031174 146.693008,187.876999 
	C147.147903,187.805679 147.602783,187.734344 148.604843,187.729279 
	C148.906387,187.532837 149.207947,187.336380 150.246033,187.278091 
	C152.164093,186.864426 154.082169,186.450760 156.520203,186.069366 
	C156.679626,186.000519 156.839050,185.931686 157.673248,185.861740 
	C158.093674,185.712784 158.514084,185.563828 159.803802,185.619812 
	C161.112045,185.756210 162.611984,186.366501 163.688828,185.930893 
	C165.969864,185.008133 169.117722,184.001480 169.893829,182.173294 
	C170.777542,180.091537 170.300949,176.358673 168.859421,174.678955 
	C167.536377,173.137283 164.143433,173.371994 160.973526,172.893387 
	C158.405380,174.566757 155.837250,176.240143 153.156693,177.188232 
	C153.071442,176.461563 152.986191,175.734894 153.003662,174.337402 
	C152.962479,173.888489 152.921295,173.439575 153.047699,172.254684 
	C152.990707,171.506775 152.933716,170.758850 153.004776,169.079956 
	C152.963150,160.054489 152.921524,151.029007 153.015457,141.503784 
	C152.988800,141.333237 152.962158,141.162704 153.102798,140.634338 
	C153.102798,140.634338 153.138901,140.240997 153.761047,139.981583 
	C157.882492,136.101364 162.086273,132.302780 166.069855,128.285843 
	C167.118561,127.228348 167.756165,125.560440 168.116516,124.060852 
	C169.216354,119.483849 170.561920,114.883545 170.869751,110.229996 
	C171.049423,107.513588 170.246597,103.716934 168.403305,102.148155 
	C166.270950,100.333336 162.476974,100.265480 160.093597,103.374245 
	C157.709076,106.484505 157.954697,109.647247 160.356262,112.504128 
	C165.459839,118.575272 165.340897,122.580101 159.735748,127.934845 
	C156.733063,130.803391 153.829224,133.775391 150.403793,136.902100 
	C150.167038,137.148087 149.930267,137.394073 149.240356,137.946625 
	C149.104980,138.275482 148.969604,138.604340 148.532806,139.631256 
	C148.503754,141.406540 148.474701,143.181824 148.254150,145.498672 
	C148.311539,145.681335 148.368942,145.864014 148.318817,146.969727 
	C148.298996,156.027451 148.342209,165.086136 148.202286,174.141998 
	C148.176559,175.806824 147.408020,177.460175 146.254639,179.025620 
	C145.538254,179.149414 144.821869,179.273193 143.360611,179.318283 
	C142.893097,179.473099 142.425598,179.627914 141.115753,179.527130 
	C137.708939,179.732315 138.114792,177.297806 138.114212,175.168579 
	C138.111649,165.744934 138.333649,156.314957 138.055023,146.899673 
	C137.837219,139.539551 137.669281,132.403641 144.163147,127.137596 
	C144.163147,127.137596 144.049545,127.137848 144.646179,127.003677 
	C144.906784,126.694870 145.167389,126.386063 146.002930,125.816505 
	C151.566467,121.566162 154.317001,116.199669 153.172699,109.002151 
	C152.759201,106.401299 153.129913,103.679237 153.100388,101.012955 
	C153.065552,97.867332 152.958023,95.102051 156.261917,92.820724 
	C159.534027,90.561325 159.267838,85.845406 156.462860,83.124184 
	C153.695251,80.439224 150.552277,80.193626 147.415665,82.457367 
	C144.089523,84.857895 143.599319,88.627563 145.893875,92.152031 
	C146.769577,93.497086 148.129944,94.970139 148.120346,96.377014 
	C148.050934,106.548660 151.059998,117.652176 140.320557,124.934395 
	C140.091660,125.089600 140.052582,125.524742 139.328522,126.153503 
	C130.776581,131.512695 134.792297,140.435455 133.411850,148.243866 
	C132.064713,147.738800 131.057495,147.361176 129.708939,146.387924 
	C124.312057,143.452652 123.413101,138.769333 123.618347,133.012970 
	C124.015205,121.882538 123.599113,110.724869 123.852280,99.586037 
	C123.901627,97.414719 125.033691,94.940193 126.412430,93.194908 
	C129.315186,89.520439 129.624237,85.970413 126.433372,83.013519 
	C123.389923,80.193237 120.097855,80.310181 116.989616,82.891335 
	C114.180763,85.223877 114.295197,89.513275 116.491829,92.837280 
	C117.742935,94.730484 118.800674,97.163445 118.843246,99.374565 
	C119.070541,111.180122 119.473938,123.024231 118.758255,134.790649 
	C118.311562,142.134659 120.706497,146.841629 127.309364,150.379211 
	C127.751892,150.621780 128.194427,150.864349 128.947693,151.606720 
	C129.283356,151.796509 129.619003,151.986298 130.361923,152.770477 
	C131.321014,153.880447 133.075577,154.965622 133.111053,156.104370 
	C133.354935,163.931046 133.239197,171.768936 133.239197,179.676880 
	C130.572250,179.499359 128.765442,179.379089 126.157799,179.063599 
	C122.192513,178.339386 118.227234,177.615173 113.688133,176.440460 
	C108.811508,174.589279 103.934883,172.738098 98.763458,170.282654 
	C95.526749,168.143494 92.290039,166.004349 88.716820,163.301132 
	C84.812737,159.532761 80.908653,155.764404 76.757225,151.364059 
	C72.396339,143.529465 68.035446,135.694885 63.580357,127.025864 
	C58.746059,111.700157 59.086704,96.348816 63.697235,80.405739 
	C64.501450,78.056519 65.305656,75.707298 66.626907,72.933372 
	C66.825638,72.304565 67.024368,71.675751 67.716721,70.604187 
	C72.178764,63.822266 76.640800,57.040348 81.752998,50.148727 
	C82.546753,49.470291 83.340508,48.791859 83.995132,48.028687 
	C83.995132,48.028687 84.119949,48.133884 84.746765,47.888664 
	C89.610565,44.319958 94.474365,40.751251 100.030945,37.051216 
	C104.017914,35.300182 108.004875,33.549152 112.737549,31.765087 
	C115.523697,30.916090 118.309853,30.067093 121.980247,29.209608 
	C127.635643,28.760769 133.291031,28.311930 139.744400,28.059286 
	C142.830002,28.366009 145.915619,28.672731 149.700409,29.267866 
	C156.797729,31.789804 163.895065,34.311741 171.579071,37.163540 
	C172.939346,37.811443 174.299637,38.459347 175.988480,39.563751 
	C176.322998,39.715500 176.657532,39.867252 177.314774,40.507660 
	C177.844589,40.741283 178.374420,40.974903 179.261520,41.752304 
	C181.189316,43.164749 183.117126,44.577190 185.208466,46.422974 
	C185.396469,46.693886 185.654251,46.848423 186.373718,47.291187 
	C186.539764,47.378887 186.705795,47.466587 187.106110,48.135986 
	C189.989151,51.118778 192.872177,54.101566 195.971344,57.752659 
	C199.254730,63.185730 202.538116,68.618805 205.888580,74.829910 
	C206.823242,80.050812 207.618896,85.302071 208.749924,90.480080 
	C209.334625,93.156921 209.821793,96.541489 211.642426,98.046928 
	C213.125702,99.273422 216.526459,98.181007 219.722885,97.824165 
	C220.491165,96.374680 221.259445,94.925194 222.037994,93.446732 
	C222.037994,93.446732 222.068527,93.463264 222.113693,92.679985 
	C221.752411,91.456482 221.391144,90.232979 220.886322,88.500687 
	C220.608231,88.302750 220.330139,88.104805 220.016357,87.983292 
M237.148346,184.528854 
	C237.436539,184.710388 237.724747,184.891937 238.316650,185.616898 
	C239.482803,186.765823 240.648972,187.914734 242.027405,189.472641 
	C242.412369,189.428574 242.797318,189.384506 243.186935,189.214661 
	C243.186935,189.214661 243.253250,189.321640 244.085449,189.517654 
	C246.759628,189.478256 249.433823,189.438843 252.800354,189.713715 
	C257.110382,189.533783 261.002838,190.279678 263.688538,194.179306 
	C264.059540,194.718033 265.149963,194.761337 266.149933,195.365204 
	C266.149933,195.365204 266.508057,195.557602 266.508057,195.557602 
	C266.508057,195.557602 266.905853,195.474640 267.604706,195.697479 
	C268.090881,195.682755 268.577057,195.668030 269.625946,195.806625 
	C270.126648,195.558731 270.627350,195.310852 271.563416,195.047852 
	C271.563416,195.047852 271.976990,194.910965 272.679352,194.912247 
	C278.557922,191.199799 280.255524,186.273666 277.394928,181.228653 
	C274.516235,176.151627 269.096039,174.741211 263.238281,177.961670 
	C260.003998,181.704910 256.622070,185.148895 250.147308,183.889526 
	C248.473923,183.871262 246.800537,183.852982 245.025711,183.860077 
	C245.025711,183.860077 245.127426,183.884262 244.811768,183.346939 
	C243.925629,182.816284 243.039490,182.285629 241.840393,181.159622 
	C237.201996,176.110611 232.563614,171.061600 227.811783,165.327591 
	C225.882568,164.247681 223.953354,163.167786 221.194458,161.927383 
	C219.790253,161.971039 218.386032,162.014694 216.073654,161.901443 
	C212.379761,161.951523 208.685867,162.001602 204.087601,161.897583 
	C200.727814,161.946686 197.368042,161.995789 193.099533,161.889587 
	C189.041504,162.014969 184.983490,162.140350 180.175949,162.038956 
	C176.450546,162.033051 172.725159,162.027130 168.123077,161.858109 
	C167.129868,161.845108 166.136520,161.815048 165.143463,161.822464 
	C162.642365,161.841125 159.457352,161.593475 160.037277,165.212814 
	C160.235855,166.452057 163.308197,167.974838 165.135406,168.070343 
	C170.738998,168.363174 176.375488,168.026825 182.736267,168.106812 
	C183.487991,168.059006 184.239700,168.011185 185.855713,168.135574 
	C187.908569,168.080963 189.961441,168.026352 192.935440,168.127853 
	C197.954071,168.069443 202.972702,168.011032 208.908951,168.107361 
	C212.946899,168.065598 216.984848,168.023849 221.583481,168.325211 
	C223.698349,170.242432 225.813217,172.159653 227.981415,173.995911 
	C227.981415,173.995911 227.918167,174.074265 228.092117,174.620071 
	C228.236649,174.744858 228.381180,174.869659 228.722626,175.579453 
	C231.148392,178.052231 233.574158,180.525009 236.143921,183.481308 
	C236.419449,183.656860 236.694962,183.832413 236.992386,184.005737 
	C236.992386,184.005737 236.990463,184.027618 237.148346,184.528854 
M304.004333,130.002014 
	C304.004333,130.002014 303.990692,129.969666 304.572906,129.708054 
	C305.031982,128.801727 305.491058,127.895386 306.075378,126.585121 
	C306.075378,126.585121 306.073975,126.162239 306.557465,125.621223 
	C306.399536,124.019623 306.241608,122.418030 306.095337,120.399673 
	C306.095337,120.399673 305.968445,120.002541 305.893433,119.437828 
	C305.645691,119.155014 305.397949,118.872200 305.074219,118.075905 
	C304.733582,117.709267 304.392975,117.342621 303.781860,116.383858 
	C302.858643,115.881447 301.935425,115.379036 300.720886,114.753342 
	C300.720886,114.753342 300.411530,114.819336 299.901337,114.330338 
	C297.544708,114.526772 295.188080,114.723206 292.174866,115.012550 
	C290.815826,116.421051 289.456787,117.829559 287.149261,119.272232 
	C276.354706,119.450165 265.560120,119.628105 254.045654,119.657234 
	C252.313141,119.658516 250.580612,119.659790 248.002075,119.341431 
	C243.677383,119.582870 239.352707,119.824310 234.228683,119.777596 
	C232.820938,119.796478 231.413177,119.815361 229.086792,119.695717 
	C223.037308,119.994438 215.953033,117.551300 212.315521,126.140610 
	C208.500015,130.941589 204.684525,135.742569 199.957916,140.644943 
	C194.977753,140.736649 189.997574,140.828354 184.086533,140.777679 
	C177.468124,140.747437 170.842911,140.548584 164.236420,140.814346 
	C162.725830,140.875122 161.279678,142.538086 159.803879,143.463669 
	C161.246414,144.612305 162.651489,146.690872 164.137894,146.750748 
	C171.068192,147.029968 178.020966,146.751465 185.879578,146.879242 
	C190.250488,146.820007 194.621384,146.760773 199.913132,146.879395 
	C205.603577,146.817139 211.294037,146.754883 217.893906,146.868637 
	C221.589294,146.816025 225.284698,146.763428 229.661163,146.920547 
	C231.742340,148.315414 233.823517,149.710266 235.953293,151.074631 
	C235.953293,151.074631 235.907288,151.042557 236.093002,151.584564 
	C236.416428,151.775497 236.739838,151.966446 237.247940,152.577530 
	C237.247940,152.577530 237.649002,152.800644 237.891632,153.285370 
	C238.593781,153.859467 239.295914,154.433578 240.000610,154.999390 
	C240.000610,154.999390 239.991379,155.000488 240.168564,155.481995 
	C240.429443,155.698242 240.690338,155.914490 241.103165,156.604111 
	C241.311905,156.884521 241.588287,157.055725 242.223648,157.715500 
	C244.282745,159.595627 246.503845,161.329208 248.365860,163.387634 
	C251.809540,167.194580 255.806595,169.100204 261.816925,168.111343 
	C263.726074,167.815048 265.635193,167.518738 267.792084,167.410828 
	C267.792084,167.410828 268.102753,167.392090 268.776154,167.856049 
	C272.848755,167.899353 276.921356,167.942642 281.822845,168.120758 
	C283.218567,168.079758 284.614288,168.038773 286.415588,168.087799 
	C286.415588,168.087799 286.830933,168.096130 287.068909,168.752975 
	C287.682678,169.734756 288.208496,170.786652 288.925629,171.686035 
	C291.884277,175.396545 295.578247,176.978745 300.282715,175.389816 
	C304.821503,173.856857 306.847565,170.398056 306.851898,165.902771 
	C306.856628,160.988113 303.929260,157.776199 299.398315,156.519241 
	C294.991730,155.296799 291.247406,156.702271 288.208771,161.328400 
	C286.419373,161.522049 284.631836,161.861191 282.840210,161.884476 
	C274.557800,161.992096 266.274292,162.011871 257.358093,161.805374 
	C254.550064,159.601425 251.742020,157.397476 248.574951,154.610489 
	C245.475388,151.859818 242.375824,149.109146 239.077957,145.741806 
	C235.759903,141.263870 231.628159,138.983490 225.055069,140.761093 
	C222.039001,140.807449 219.022919,140.853790 215.233078,140.742294 
	C213.574417,140.620407 211.915756,140.498520 209.574432,140.326462 
	C213.059387,135.653366 215.917740,131.820511 219.427887,127.517776 
	C222.960358,126.941414 226.492813,126.365044 230.943512,125.946579 
	C236.298477,125.885353 241.653427,125.824127 247.753540,125.931618 
	C248.513214,125.890411 249.272873,125.849205 250.900375,125.978630 
	C253.254715,125.930855 255.609039,125.883080 258.830139,125.959633 
	C260.867157,125.909363 262.904205,125.859093 265.607971,125.979790 
	C266.062378,125.940323 266.516754,125.900856 267.903809,125.975922 
	C273.275818,125.929733 278.647827,125.883553 284.745911,125.985168 
	C286.520813,127.215950 288.636414,128.154633 289.996552,129.741013 
	C292.486816,132.645523 295.348999,133.702454 299.582245,132.898712 
	C299.880737,132.657227 300.179260,132.415756 301.073517,132.171677 
	C301.713654,131.765167 302.353790,131.358673 303.465454,130.811340 
	C303.764496,130.621674 303.932465,130.350723 304.004333,130.002014 
M328.000000,135.000610 
	C328.000000,135.000610 328.014465,134.988205 327.487030,134.425018 
	C325.219482,134.564819 322.951935,134.704620 319.990967,134.919754 
	C317.311584,136.909561 314.632202,138.899353 311.215027,140.799561 
	C310.477234,140.860413 309.739441,140.921280 308.082642,140.826614 
	C303.725922,140.857239 299.369171,140.887878 294.130554,140.772537 
	C291.755615,140.816574 289.380707,140.860611 286.105927,140.760559 
	C283.076782,140.812653 280.047607,140.864761 276.116943,140.771378 
	C273.081696,140.828232 270.046478,140.885086 266.085175,140.776031 
	C260.270630,140.776031 254.456116,140.776031 248.214554,140.776031 
	C253.166840,148.977982 260.376251,146.884186 267.890289,147.001953 
	C270.914459,146.896515 273.938599,146.791092 277.852478,146.873016 
	C280.562866,146.825089 283.273224,146.777161 286.876282,146.882339 
	C289.584839,146.825531 292.293427,146.768738 295.917206,146.877533 
	C300.269226,146.809586 304.621277,146.741638 309.814972,146.861160 
	C311.535065,146.922440 313.255157,146.983734 315.104095,147.720871 
	C317.652588,149.524399 320.201080,151.327927 323.085876,153.433395 
	C323.483032,153.338226 323.880188,153.243073 324.849152,153.220856 
	C325.227203,153.161346 325.605225,153.101837 326.635345,153.065231 
	C327.190033,152.761139 327.744690,152.457047 328.835602,152.100632 
	C329.253448,151.794220 329.671265,151.487808 330.719452,150.833969 
	C335.662384,144.985596 335.089020,139.403702 329.109344,135.819168 
	C329.109344,135.819168 329.143311,135.877502 328.941803,135.396378 
	C328.630341,135.258804 328.318909,135.121231 328.000000,135.000610 
M23.681803,93.499939 
	C23.681448,118.152679 23.682270,142.805420 23.680210,167.458160 
	C23.679281,178.588226 23.909660,178.808548 35.052021,178.211212 
	C42.135509,177.831467 42.134811,177.831451 42.135124,170.579117 
	C42.136936,128.269669 42.139835,85.960205 42.140648,43.650749 
	C42.140854,32.959515 41.847466,32.681446 30.958315,32.951283 
	C30.292540,32.967781 29.622070,32.943638 28.961943,33.014454 
	C25.367657,33.400024 23.513868,34.774925 23.575375,39.031677 
	C23.832850,56.851215 23.682442,74.676651 23.681803,93.499939 
z"/>
<path fill="#4170C0" opacity="1.000000" stroke="none" 
	d="
M23.681641,92.999931 
	C23.682442,74.676651 23.832850,56.851215 23.575375,39.031677 
	C23.513868,34.774925 25.367657,33.400024 28.961943,33.014454 
	C29.622070,32.943638 30.292540,32.967781 30.958315,32.951283 
	C41.847466,32.681446 42.140854,32.959515 42.140648,43.650749 
	C42.139835,85.960205 42.136936,128.269669 42.135124,170.579117 
	C42.134811,177.831451 42.135509,177.831467 35.052021,178.211212 
	C23.909660,178.808548 23.679281,178.588226 23.680210,167.458160 
	C23.682270,142.805420 23.681448,118.152679 23.681641,92.999931 
z"/>
<path fill="#4775B8" opacity="1.000000" stroke="none" 
	d="
M63.352291,80.978035 
	C59.086704,96.348816 58.746059,111.700157 63.197491,127.476044 
	C61.407589,129.018570 60.000553,130.110916 58.416336,131.340805 
	C61.073235,133.076416 62.721752,134.153305 64.370277,135.230194 
	C64.292992,135.610062 64.215706,135.989914 64.138428,136.369766 
	C62.102859,136.576584 60.067295,136.783401 58.031727,136.990204 
	C47.703518,113.675537 48.906288,90.542610 59.170300,67.572464 
	C60.118031,65.451500 61.308704,63.439098 63.082531,61.182739 
	C65.577461,60.989185 67.376434,60.989185 70.022987,60.989185 
	C68.905922,63.036800 68.142212,64.390732 67.421181,65.767021 
	C65.292328,69.830566 63.065422,73.851692 61.200397,78.033691 
	C60.954311,78.585503 62.588779,79.975975 63.352291,80.978035 
z"/>
<path fill="#46B0E1" opacity="1.000000" stroke="none" 
	d="
M126.958633,179.258835 
	C128.765442,179.379089 130.572250,179.499359 133.239197,179.676880 
	C133.239197,171.768936 133.354935,163.931046 133.111053,156.104370 
	C133.075577,154.965622 131.321014,153.880447 130.034607,152.195129 
	C129.350525,151.448837 128.993729,151.277878 128.636948,151.106934 
	C128.194427,150.864349 127.751892,150.621780 127.307922,149.857666 
	C128.221085,148.551941 129.135681,147.767746 130.050278,146.983551 
	C131.057495,147.361176 132.064713,147.738800 133.411850,148.243866 
	C134.792297,140.435455 130.776581,131.512695 139.797028,126.220612 
	C141.576645,126.606949 142.887772,126.926186 144.198898,127.245422 
	C137.669281,132.403641 137.837219,139.539551 138.055023,146.899673 
	C138.333649,156.314957 138.111649,165.744934 138.114212,175.168579 
	C138.114792,177.297806 137.708939,179.732315 141.451294,179.977341 
	C140.728638,183.249893 139.750809,185.983063 144.488129,186.157639 
	C145.013672,186.176987 145.502213,187.200775 146.007904,187.758728 
	C140.895935,188.031174 135.783981,188.303619 130.159637,188.062897 
	C128.751038,184.786102 127.854836,182.022476 126.958633,179.258835 
z"/>
<path fill="#57ABD7" opacity="1.000000" stroke="none" 
	d="
M129.879608,146.685730 
	C129.135681,147.767746 128.221085,148.551941 127.179626,149.634598 
	C120.706497,146.841629 118.311562,142.134659 118.758255,134.790649 
	C119.473938,123.024231 119.070541,111.180122 118.843246,99.374565 
	C118.800674,97.163445 117.742935,94.730484 116.491829,92.837280 
	C114.295197,89.513275 114.180763,85.223877 116.989616,82.891335 
	C120.097855,80.310181 123.389923,80.193237 126.433372,83.013519 
	C129.624237,85.970413 129.315186,89.520439 126.412430,93.194908 
	C125.033691,94.940193 123.901627,97.414719 123.852280,99.586037 
	C123.599113,110.724869 124.015205,121.882538 123.618347,133.012970 
	C123.413101,138.769333 124.312057,143.452652 129.879608,146.685730 
M118.843735,90.481384 
	C120.729355,90.518982 122.755959,90.962471 124.426918,90.382057 
	C125.042015,90.168404 125.436989,87.164162 124.803612,86.112762 
	C124.155350,85.036667 122.124168,84.793671 120.698326,84.186005 
	C119.915031,86.081207 119.131729,87.976402 118.843735,90.481384 
z"/>
<path fill="#39BDEA" opacity="1.000000" stroke="none" 
	d="
M146.350464,187.817871 
	C145.502213,187.200775 145.013672,186.176987 144.488129,186.157639 
	C139.750809,185.983063 140.728638,183.249893 141.872452,180.105133 
	C142.425598,179.627914 142.893097,179.473099 143.949127,179.531281 
	C145.352524,179.535797 146.167435,179.327316 146.982330,179.118820 
	C147.408020,177.460175 148.176559,175.806824 148.202286,174.141998 
	C148.342209,165.086136 148.298996,156.027451 148.490936,146.395355 
	C148.809387,145.481201 148.736908,145.193237 148.445633,144.957108 
	C148.474701,143.181824 148.503754,141.406540 148.943207,139.158997 
	C149.466919,138.337845 149.580215,137.988953 149.693497,137.640045 
	C149.930267,137.394073 150.167038,137.148087 150.780609,137.126251 
	C151.817932,138.313919 152.478409,139.277466 153.138901,140.240997 
	C153.138901,140.240997 153.102798,140.634338 152.859894,140.900040 
	C152.555832,141.268921 152.417679,141.417633 152.447052,141.467255 
	C152.562759,141.662918 152.731094,141.827454 152.879898,142.003540 
	C152.921524,151.029007 152.963150,160.054489 152.714554,169.737534 
	C152.576263,171.260300 152.728195,172.125473 152.880112,172.990662 
	C152.921295,173.439575 152.962479,173.888489 152.716568,174.881180 
	C152.709351,176.254486 152.989227,177.084000 153.269104,177.913513 
	C155.837250,176.240143 158.405380,174.566757 161.631134,172.914764 
	C162.878464,173.008392 163.468185,173.080658 164.057922,173.152939 
	C163.699829,173.731537 163.341751,174.310135 162.630646,174.969620 
	C158.018494,178.682297 157.990402,179.648041 161.887360,183.152435 
	C160.794876,184.081497 159.864685,184.748184 158.934509,185.414856 
	C158.514084,185.563828 158.093674,185.712784 157.225830,185.714737 
	C156.519012,185.724197 156.259628,185.880646 156.000229,186.037109 
	C154.082169,186.450760 152.164093,186.864426 149.605865,187.210846 
	C148.663025,187.316742 148.360352,187.489868 148.057678,187.663010 
	C147.602783,187.734344 147.147903,187.805679 146.350464,187.817871 
z"/>
<path fill="#4FBFE6" opacity="1.000000" stroke="none" 
	d="
M144.181030,127.191513 
	C142.887772,126.926186 141.576645,126.606949 140.095245,126.058502 
	C140.052582,125.524742 140.091660,125.089600 140.320557,124.934395 
	C151.059998,117.652176 148.050934,106.548660 148.120346,96.377014 
	C148.129944,94.970139 146.769577,93.497086 145.893875,92.152031 
	C143.599319,88.627563 144.089523,84.857895 147.415665,82.457367 
	C150.552277,80.193626 153.695251,80.439224 156.462860,83.124184 
	C159.267838,85.845406 159.534027,90.561325 156.261917,92.820724 
	C152.958023,95.102051 153.065552,97.867332 153.100388,101.012955 
	C153.129913,103.679237 152.759201,106.401299 153.172699,109.002151 
	C154.317001,116.199669 151.566467,121.566162 145.412704,126.018433 
	C144.564835,126.526192 144.307190,126.832016 144.049545,127.137848 
	C144.049545,127.137848 144.163147,127.137596 144.181030,127.191513 
M151.555923,84.068398 
	C150.344604,85.672119 148.816803,87.154640 148.126251,88.957802 
	C147.933929,89.460014 150.106689,91.486916 151.403229,91.738533 
	C152.386429,91.929359 154.774567,90.208817 154.676437,89.692528 
	C154.311920,87.774490 153.177811,86.002708 151.555923,84.068398 
z"/>
<path fill="#4A7FBD" opacity="1.000000" stroke="none" 
	d="
M63.524765,80.691887 
	C62.588779,79.975975 60.954311,78.585503 61.200397,78.033691 
	C63.065422,73.851692 65.292328,69.830566 67.421181,65.767021 
	C68.142212,64.390732 68.905922,63.036800 70.022987,60.989185 
	C67.376434,60.989185 65.577461,60.989185 63.360641,60.980827 
	C68.145836,54.438530 73.348869,47.904591 79.095993,41.450661 
	C81.133369,43.731743 82.626656,45.932816 84.119949,48.133888 
	C84.119949,48.133884 83.995132,48.028687 83.683517,48.041451 
	C82.615540,48.788956 81.859192,49.523689 81.102844,50.258423 
	C76.640800,57.040348 72.178764,63.822266 67.161987,70.992424 
	C66.441460,72.039795 66.275658,72.698936 66.109863,73.358070 
	C65.305656,75.707298 64.501450,78.056519 63.524765,80.691887 
z"/>
<path fill="#487BBC" opacity="1.000000" stroke="none" 
	d="
M58.049038,137.352478 
	C60.067295,136.783401 62.102859,136.576584 64.138428,136.369766 
	C64.215706,135.989914 64.292992,135.610062 64.370277,135.230194 
	C62.721752,134.153305 61.073235,133.076416 58.416336,131.340805 
	C60.000553,130.110916 61.407589,129.018570 63.244591,127.893250 
	C68.035446,135.694885 72.396339,143.529465 76.745407,151.996262 
	C77.538391,156.244202 75.231743,158.287811 72.858513,160.297791 
	C67.927788,152.770111 62.997070,145.242432 58.049038,137.352478 
z"/>
<path fill="#3CC2EE" opacity="1.000000" stroke="none" 
	d="
M152.055984,20.977795 
	C158.194641,22.843472 164.333298,24.709148 170.725952,27.178988 
	C170.984100,30.799992 170.988235,33.816837 170.992371,36.833679 
	C163.895065,34.311741 156.797729,31.789804 149.148651,28.852287 
	C147.588486,26.609732 146.580048,24.782753 145.571625,22.955774 
	C147.405838,22.303511 149.235687,21.638380 151.078735,21.012081 
	C151.374252,20.911663 151.728745,20.984858 152.055984,20.977795 
z"/>
<path fill="#44C4EC" opacity="1.000000" stroke="none" 
	d="
M153.449982,140.111298 
	C152.478409,139.277466 151.817932,138.313919 151.019104,137.025543 
	C153.829224,133.775391 156.733063,130.803391 159.735748,127.934845 
	C165.340897,122.580101 165.459839,118.575272 160.356262,112.504128 
	C157.954697,109.647247 157.709076,106.484505 160.093597,103.374245 
	C162.476974,100.265480 166.270950,100.333336 168.403305,102.148155 
	C170.246597,103.716934 171.049423,107.513588 170.869751,110.229996 
	C170.561920,114.883545 169.216354,119.483849 168.116516,124.060852 
	C167.756165,125.560440 167.118561,127.228348 166.069855,128.285843 
	C162.086273,132.302780 157.882492,136.101364 153.449982,140.111298 
M161.559341,106.865479 
	C160.965546,110.095261 162.860901,111.542419 165.600388,111.696350 
	C166.661942,111.756020 168.610123,110.493652 168.734680,109.629013 
	C168.962814,108.045425 168.135834,106.309822 167.748825,104.637611 
	C165.792145,105.154305 163.835480,105.670998 161.559341,106.865479 
z"/>
<path fill="#499AD0" opacity="1.000000" stroke="none" 
	d="
M218.776108,127.987648 
	C215.917740,131.820511 213.059387,135.653366 209.574432,140.326462 
	C211.915756,140.498520 213.574417,140.620407 215.651642,141.194550 
	C216.374954,143.328751 216.679718,145.010681 216.984482,146.692627 
	C211.294037,146.754883 205.603577,146.817139 199.462311,146.431976 
	C199.630661,144.170898 200.249847,142.357224 200.869019,140.543549 
	C204.684525,135.742569 208.500015,130.941589 212.815735,126.267685 
	C215.135986,126.925720 216.956055,127.456688 218.776108,127.987648 
z"/>
<path fill="#6BCCE2" opacity="1.000000" stroke="none" 
	d="
M221.029877,89.009483 
	C221.391144,90.232979 221.752411,91.456482 221.751526,93.086899 
	C220.871216,93.120979 220.353088,92.748146 219.869751,92.022873 
	C219.552521,91.125656 219.200470,90.580879 218.520142,89.846527 
	C216.233719,89.816330 214.110458,89.585831 212.392807,90.313171 
	C211.628738,90.636711 210.980667,93.631569 211.501480,94.125221 
	C212.854858,95.408066 214.884918,95.977005 217.001862,96.897652 
	C217.931473,97.348610 218.504211,97.732727 219.076950,98.116852 
	C216.526459,98.181007 213.125702,99.273422 211.642426,98.046928 
	C209.821793,96.541489 209.334625,93.156921 208.749924,90.480080 
	C207.618896,85.302071 206.823242,80.050812 206.273148,74.432365 
	C209.218643,73.646332 213.125626,77.971786 214.068985,71.918549 
	C215.694839,76.644333 217.320694,81.370125 219.085297,86.727997 
	C219.513840,87.556389 219.803635,87.752701 220.093430,87.949005 
	C220.093430,87.949005 220.016357,87.983292 220.120636,88.188339 
	C220.493240,88.598763 220.761551,88.804123 221.029877,89.009483 
z"/>
<path fill="#72CDE1" opacity="1.000000" stroke="none" 
	d="
M288.964325,160.983505 
	C291.247406,156.702271 294.991730,155.296799 299.398315,156.519241 
	C303.929260,157.776199 306.856628,160.988113 306.851898,165.902771 
	C306.847565,170.398056 304.821503,173.856857 300.282715,175.389816 
	C295.578247,176.978745 291.884277,175.396545 288.925629,171.686035 
	C288.208496,170.786652 287.682678,169.734756 287.315552,168.338043 
	C288.763428,166.667847 289.964691,165.412582 291.176392,164.551834 
	C291.638214,167.170029 292.089600,169.393692 292.560516,171.713562 
	C294.734985,171.713562 297.022980,172.404327 298.226135,171.556168 
	C300.165131,170.189316 302.650543,167.746994 302.560181,165.872009 
	C302.469635,163.993835 299.661499,161.030197 297.758240,160.787491 
	C295.730591,160.528931 293.367371,162.901871 291.097992,163.762039 
	C290.351654,162.593292 289.657990,161.788391 288.964325,160.983505 
z"/>
<path fill="#4C8AC5" opacity="1.000000" stroke="none" 
	d="
M84.433350,48.011276 
	C82.626656,45.932816 81.133369,43.731743 79.396835,41.301800 
	C84.852203,37.045830 90.550819,33.018730 96.804970,29.245449 
	C97.768829,30.928436 98.202782,32.350929 98.577255,33.788914 
	C98.869240,34.910137 99.087273,36.050621 99.338165,37.182545 
	C94.474365,40.751251 89.610565,44.319958 84.433350,48.011276 
z"/>
<path fill="#5BC9E9" opacity="1.000000" stroke="none" 
	d="
M254.765564,119.806038 
	C265.560120,119.628105 276.354706,119.450165 287.854828,119.478485 
	C289.439484,120.235435 290.318573,120.786140 291.196167,121.666847 
	C291.127899,122.662186 291.061127,123.327515 290.636749,123.995041 
	C288.192719,124.610611 286.106262,125.223991 284.019836,125.837372 
	C278.647827,125.883553 273.275818,125.929733 267.259125,125.700844 
	C266.077118,125.284348 265.539764,125.142937 264.997894,124.600632 
	C263.655273,123.132187 262.463409,121.702866 260.942291,121.088326 
	C259.023865,120.313240 256.836761,120.203064 254.765564,119.806038 
z"/>
<path fill="#64CAE6" opacity="1.000000" stroke="none" 
	d="
M214.047729,71.934891 
	C213.125626,77.971786 209.218643,73.646332 206.239609,74.043350 
	C202.538116,68.618805 199.254730,63.185730 196.291641,57.392159 
	C200.852844,57.838783 201.381714,54.630531 202.264984,51.805656 
	C204.498398,54.904892 206.731827,58.004124 208.993179,61.833344 
	C206.425522,68.651787 206.534805,68.834816 212.870773,69.011803 
	C212.973236,69.337494 213.075699,69.663177 213.196655,70.556763 
	C213.500778,71.407074 213.786407,71.689491 214.072037,71.971901 
	C214.072037,71.971901 214.026459,71.951233 214.047729,71.934891 
z"/>
<path fill="#4C85C1" opacity="1.000000" stroke="none" 
	d="
M72.948685,160.610962 
	C75.231743,158.287811 77.538391,156.244202 76.869080,152.312256 
	C80.908653,155.764404 84.812737,159.532761 88.832092,163.971695 
	C88.160988,167.184143 87.374603,169.726044 86.588226,172.267929 
	C82.071762,168.486679 77.555305,164.705414 72.948685,160.610962 
z"/>
<path fill="#66CAE4" opacity="1.000000" stroke="none" 
	d="
M284.382874,125.911270 
	C286.106262,125.223991 288.192719,124.610611 290.785583,124.289474 
	C292.527252,126.069344 293.762512,127.556976 295.072113,129.200500 
	C295.422089,129.315567 295.697723,129.274719 296.317871,129.212097 
	C297.121185,129.220505 297.580017,129.250732 298.152740,129.399078 
	C298.626160,129.616058 298.868744,129.472717 299.293030,128.903030 
	C302.891083,126.501526 303.838867,123.634895 301.887512,119.771248 
	C301.491638,119.371109 301.207855,119.198418 300.666809,118.917458 
	C299.938385,118.509911 299.467255,118.210632 298.918396,117.761642 
	C298.569550,117.658073 298.298431,117.704216 297.653687,117.799469 
	C295.252655,119.011322 293.225159,120.174072 291.197693,121.336838 
	C290.318573,120.786140 289.439484,120.235435 288.329071,119.461403 
	C289.456787,117.829559 290.815826,116.421051 292.972870,114.995064 
	C295.984436,114.924828 298.197968,114.872078 300.411530,114.819336 
	C300.411530,114.819336 300.720886,114.753342 300.911438,115.175522 
	C302.085449,116.057129 303.068909,116.516548 304.052368,116.975975 
	C304.392975,117.342621 304.733582,117.709267 305.140106,118.624329 
	C305.460144,119.449348 305.714294,119.725945 305.968445,120.002541 
	C305.968445,120.002541 306.095337,120.399673 306.055267,121.054672 
	C306.034790,123.193863 306.054382,124.678047 306.073975,126.162239 
	C306.073975,126.162239 306.075378,126.585121 305.675720,126.846176 
	C304.847595,128.061386 304.419128,129.015518 303.990692,129.969666 
	C303.990692,129.969666 304.004333,130.002014 303.772095,130.099152 
	C303.271179,130.385635 303.089233,130.637589 302.993927,130.952179 
	C302.353790,131.358673 301.713654,131.765167 300.476501,132.191437 
	C299.586700,132.458755 299.293915,132.706314 299.001129,132.953873 
	C295.348999,133.702454 292.486816,132.645523 289.996552,129.741013 
	C288.636414,128.154633 286.520813,127.215950 284.382874,125.911270 
z"/>
<path fill="#4278BA" opacity="1.000000" stroke="none" 
	d="
M184.965698,146.672424 
	C178.020966,146.751465 171.068192,147.029968 164.137894,146.750748 
	C162.651489,146.690872 161.246414,144.612305 159.803879,143.463669 
	C161.279678,142.538086 162.725830,140.875122 164.236420,140.814346 
	C170.842911,140.548584 177.468124,140.747437 184.575714,141.189575 
	C185.031815,143.291794 184.998749,144.982101 184.965698,146.672424 
z"/>
<path fill="#4B97D0" opacity="1.000000" stroke="none" 
	d="
M99.058258,170.886917 
	C103.934883,172.738098 108.811508,174.589279 113.582367,176.731659 
	C112.719521,178.720322 110.979240,180.789368 111.445953,182.024307 
	C112.076637,183.693130 114.403084,184.721069 116.001938,186.023987 
	C109.443184,183.660828 102.884430,181.297668 96.219696,178.349579 
	C97.095238,175.472076 98.076752,173.179504 99.058258,170.886917 
z"/>
<path fill="#48A3D7" opacity="1.000000" stroke="none" 
	d="
M116.306046,186.256897 
	C114.403084,184.721069 112.076637,183.693130 111.445953,182.024307 
	C110.979240,180.789368 112.719521,178.720322 113.869270,176.956909 
	C118.227234,177.615173 122.192513,178.339386 126.558212,179.161224 
	C127.854836,182.022476 128.751038,184.786102 129.809662,187.856796 
	C125.518112,187.605835 121.064133,187.047821 116.306046,186.256897 
z"/>
<path fill="#4B97D0" opacity="1.000000" stroke="none" 
	d="
M99.684555,37.116882 
	C99.087273,36.050621 98.869240,34.910137 98.577255,33.788914 
	C98.202782,32.350929 97.768829,30.928436 97.160110,29.195705 
	C101.702278,26.898777 106.444839,24.905415 111.618134,23.246555 
	C112.029854,26.320078 112.010849,29.059099 111.991844,31.798119 
	C108.004875,33.549152 104.017914,35.300182 99.684555,37.116882 
z"/>
<path fill="#56C7E7" opacity="1.000000" stroke="none" 
	d="
M291.165955,164.157318 
	C289.964691,165.412582 288.763428,166.667847 287.196533,168.009613 
	C286.830933,168.096130 286.415588,168.087799 285.979553,167.776978 
	C284.027008,167.639404 282.510468,167.812668 280.993958,167.985931 
	C276.921356,167.942642 272.848755,167.899353 268.406921,167.183228 
	C266.932617,160.421875 262.088226,163.975174 258.782715,162.904099 
	C258.292938,162.620636 258.100952,162.373856 257.991150,162.063141 
	C266.274292,162.011871 274.557800,161.992096 282.840210,161.884476 
	C284.631836,161.861191 286.419373,161.522049 288.586548,161.155945 
	C289.657990,161.788391 290.351654,162.593292 291.071350,163.761307 
	C291.097351,164.124435 291.165955,164.157303 291.165955,164.157318 
z"/>
<path fill="#47B4E4" opacity="1.000000" stroke="none" 
	d="
M151.726074,20.754959 
	C151.728745,20.984858 151.374252,20.911663 151.078735,21.012081 
	C149.235687,21.638380 147.405838,22.303511 145.571625,22.955774 
	C146.580048,24.782753 147.588486,26.609732 148.799072,28.708080 
	C145.915619,28.672731 142.830002,28.366009 139.055847,27.701172 
	C136.419296,25.957458 131.937576,29.007198 132.119781,24.224537 
	C132.278458,20.059319 130.104874,19.732302 127.029610,19.981915 
	C135.151794,20.165318 143.273972,20.348721 151.726074,20.754959 
z"/>
<path fill="#3CC2EE" opacity="1.000000" stroke="none" 
	d="
M241.815140,189.063644 
	C240.648972,187.914734 239.482803,186.765823 238.062592,185.110382 
	C237.535843,184.411789 237.263153,184.219696 236.990463,184.027618 
	C236.990463,184.027618 236.992386,184.005737 236.986572,183.774658 
	C236.653824,183.361664 236.326874,183.179733 235.999939,182.997787 
	C233.574158,180.525009 231.148392,178.052231 228.832916,175.234619 
	C229.038177,174.662292 229.133133,174.434799 229.228088,174.207291 
	C228.791443,174.162949 228.354813,174.118607 227.918167,174.074265 
	C227.918167,174.074265 227.981415,173.995911 227.974487,173.652740 
	C227.450470,171.792633 226.667618,170.300781 226.521057,168.748825 
	C226.439819,167.888626 227.422241,166.927979 227.925217,166.012589 
	C232.563614,171.061600 237.201996,176.110611 241.826752,181.740005 
	C241.363754,182.972641 240.914383,183.624878 240.159164,184.721039 
	C242.285553,184.362900 243.706497,184.123581 245.127426,183.884262 
	C245.127426,183.884262 245.025711,183.860077 244.987808,184.215820 
	C244.384354,186.154922 243.818817,187.738281 243.253265,189.321640 
	C243.253250,189.321640 243.186935,189.214661 242.852203,189.158020 
	C242.283340,189.088806 242.049240,189.076233 241.815140,189.063644 
z"/>
<path fill="#5FC8E7" opacity="1.000000" stroke="none" 
	d="
M311.952820,140.889160 
	C314.632202,138.899353 317.311584,136.909561 320.803894,134.933441 
	C323.749359,134.960831 325.881927,134.974518 328.014465,134.988190 
	C328.014465,134.988205 328.000000,135.000610 328.120911,135.220718 
	C328.542297,135.586380 328.842804,135.731934 329.143311,135.877502 
	C329.143311,135.877502 329.109344,135.819168 329.079346,136.306610 
	C328.932526,137.765656 328.815735,138.737274 328.520325,139.563232 
	C328.341675,139.417587 328.014648,139.092758 327.869568,138.833450 
	C327.364685,138.432999 327.004913,138.291855 326.477722,138.145172 
	C326.310303,138.139603 326.007843,137.995560 325.799866,137.736069 
	C324.397369,137.625900 323.202789,137.775223 321.690186,138.074585 
	C320.497253,140.630478 318.675537,143.157700 318.964752,145.414368 
	C319.422729,148.987595 322.787415,149.486526 326.125549,149.322861 
	C326.491699,149.285233 326.737305,149.113297 327.148865,148.739807 
	C327.770325,148.297867 328.225769,148.057495 328.995361,148.037354 
	C329.569366,149.232162 329.829254,150.206772 330.089111,151.181381 
	C329.671265,151.487808 329.253448,151.794220 328.228821,152.092102 
	C327.075745,152.403137 326.529510,152.722733 325.983276,153.042313 
	C325.605225,153.101837 325.227203,153.161346 324.180664,153.147003 
	C323.257996,153.092590 323.003784,153.112030 322.749573,153.131454 
	C320.201080,151.327927 317.652588,149.524399 315.166962,147.078735 
	C314.137482,144.587463 313.045166,142.738312 311.952820,140.889160 
z"/>
<path fill="#5FC8E7" opacity="1.000000" stroke="none" 
	d="
M269.063232,195.653290 
	C268.577057,195.668030 268.090881,195.682755 267.116455,195.464417 
	C266.407959,195.092468 266.167694,195.026688 265.907318,195.033997 
	C265.149963,194.761337 264.059540,194.718033 263.688538,194.179306 
	C261.002838,190.279678 257.110382,189.533783 252.398712,189.150543 
	C251.657776,187.061981 251.318481,185.536606 250.979187,184.011215 
	C256.622070,185.148895 260.003998,181.704910 263.709290,178.187958 
	C264.489258,179.351212 264.798248,180.288177 264.924683,181.513000 
	C260.446716,186.811615 261.182800,189.133026 268.216003,192.293854 
	C269.621399,193.336411 270.799194,194.123688 271.976990,194.910965 
	C271.976990,194.910965 271.563416,195.047852 271.061951,195.035248 
	C270.061432,195.232880 269.562347,195.443085 269.063232,195.653290 
z"/>
<path fill="#5BC9E9" opacity="1.000000" stroke="none" 
	d="
M202.248535,51.822014 
	C201.381714,54.630531 200.852844,57.838783 196.183578,57.058006 
	C192.872177,54.101566 189.989151,51.118778 187.021622,47.432068 
	C188.380753,45.029861 189.824356,43.331570 191.267960,41.633270 
	C191.267960,41.633270 191.235947,41.700657 191.196548,42.097984 
	C192.527985,43.234470 193.898804,43.973629 195.269638,44.712791 
	C195.269638,44.712791 195.279617,44.940617 195.192841,45.190208 
	C194.863464,48.495728 196.514160,47.691219 198.143814,46.929626 
	C198.461975,46.986790 198.710449,47.150013 198.960175,48.013382 
	C200.083176,49.686760 201.135239,50.766060 202.187302,51.845360 
	C202.187302,51.845360 202.232101,51.838375 202.248535,51.822014 
z"/>
<path fill="#3CC2EE" opacity="1.000000" stroke="none" 
	d="
M257.674622,161.934265 
	C258.100952,162.373856 258.292938,162.620636 258.787720,163.247910 
	C259.673431,164.796524 260.338531,165.900711 260.997498,167.240707 
	C260.991302,167.476532 260.978699,167.948196 260.978699,167.948196 
	C255.806595,169.100204 251.809540,167.194580 248.365860,163.387634 
	C246.503845,161.329208 244.282745,159.595627 242.323944,157.121582 
	C244.594162,156.082962 246.764069,155.638245 248.933975,155.193527 
	C251.742020,157.397476 254.550064,159.601425 257.674622,161.934265 
z"/>
<path fill="#73CEE2" opacity="1.000000" stroke="none" 
	d="
M265.107239,181.225128 
	C264.798248,180.288177 264.489258,179.351212 264.036804,178.064789 
	C269.096039,174.741211 274.516235,176.151627 277.394928,181.228653 
	C280.255524,186.273666 278.557922,191.199799 272.328186,194.911606 
	C270.799194,194.123688 269.621399,193.336411 268.576538,192.210297 
	C272.819427,190.869492 275.336578,188.435745 273.865265,184.122345 
	C272.396759,179.817230 268.974335,179.350128 265.107239,181.225128 
z"/>
<path fill="#44A7DC" opacity="1.000000" stroke="none" 
	d="
M127.017975,19.986027 
	C130.104874,19.732302 132.278458,20.059319 132.119781,24.224537 
	C131.937576,29.007198 136.419296,25.957458 138.656860,27.603073 
	C133.291031,28.311930 127.635643,28.760769 121.390808,28.891348 
	C119.664413,26.212259 115.129105,24.676672 118.987328,21.102837 
	C118.987328,21.102837 119.442123,20.935055 120.006256,21.089254 
	C122.713707,20.829506 124.857033,20.415558 127.000359,20.001610 
	C127.000359,20.001610 127.006348,19.990137 127.017975,19.986027 
z"/>
<path fill="#48A7DA" opacity="1.000000" stroke="none" 
	d="
M219.101990,127.752716 
	C216.956055,127.456688 215.135986,126.925720 213.110443,126.098785 
	C215.953033,117.551300 223.037308,119.994438 229.544220,120.195450 
	C230.009521,122.393013 230.017395,124.090843 230.025284,125.788666 
	C226.492813,126.365044 222.960358,126.941414 219.101990,127.752716 
z"/>
<path fill="#4C8AC5" opacity="1.000000" stroke="none" 
	d="
M98.910858,170.584778 
	C98.076752,173.179504 97.095238,175.472076 95.970306,178.131348 
	C94.017326,177.507004 92.207764,176.515976 90.037468,175.015778 
	C89.326103,174.369537 88.975479,174.232468 88.624847,174.095383 
	C88.377945,174.144577 88.173859,174.072495 87.886551,173.395142 
	C87.413406,172.677765 87.066292,172.444382 86.719185,172.210983 
	C86.719185,172.210983 86.658798,172.252228 86.623512,172.260071 
	C87.374603,169.726044 88.160988,167.184143 89.000351,164.253723 
	C92.290039,166.004349 95.526749,168.143494 98.910858,170.584778 
z"/>
<path fill="#47C8EE" opacity="1.000000" stroke="none" 
	d="
M171.285721,36.998611 
	C170.988235,33.816837 170.984100,30.799992 170.979263,27.421768 
	C173.847946,28.496025 176.717316,29.931658 179.944000,31.896107 
	C180.840652,32.628174 181.379990,32.831425 181.919312,33.034676 
	C181.919312,33.034676 181.980087,33.000374 181.975433,33.417030 
	C180.948608,36.291965 179.926422,38.750244 178.904236,41.208523 
	C178.374420,40.974903 177.844589,40.741283 177.006393,40.018654 
	C176.351974,39.388855 176.005951,39.248055 175.659912,39.107254 
	C174.299637,38.459347 172.939346,37.811443 171.285721,36.998611 
z"/>
<path fill="#4680BC" opacity="1.000000" stroke="none" 
	d="
M266.989685,146.862244 
	C260.376251,146.884186 253.166840,148.977982 248.214554,140.776031 
	C254.456116,140.776031 260.270630,140.776031 266.543884,141.283249 
	C266.998322,143.481064 266.993988,145.171646 266.989685,146.862244 
z"/>
<path fill="#3CC2EE" opacity="1.000000" stroke="none" 
	d="
M254.405609,119.731636 
	C256.836761,120.203064 259.023865,120.313240 260.942291,121.088326 
	C262.463409,121.702866 263.655273,123.132187 264.979126,124.802177 
	C264.964905,125.404625 264.941223,125.808823 264.941223,125.808823 
	C262.904205,125.859093 260.867157,125.909363 258.112244,125.649307 
	C254.940430,125.495323 252.486496,125.651665 250.032547,125.807999 
	C249.272873,125.849205 248.513214,125.890411 247.372375,125.517502 
	C246.990417,123.466423 246.989624,121.829460 247.230804,120.144844 
	C247.931213,119.951820 248.389664,119.806450 248.848099,119.661072 
	C250.580612,119.659790 252.313141,119.658516 254.405609,119.731636 
z"/>
<path fill="#3BB5E7" opacity="1.000000" stroke="none" 
	d="
M246.988831,120.192490 
	C246.989624,121.829460 246.990417,123.466423 246.999802,125.433151 
	C241.653427,125.824127 236.298477,125.885353 230.484406,125.867622 
	C230.017395,124.090843 230.009521,122.393013 230.003540,120.264717 
	C231.413177,119.815361 232.820938,119.796478 234.876099,120.224068 
	C239.345291,120.511192 243.167068,120.351837 246.988831,120.192490 
z"/>
<path fill="#4E8DC6" opacity="1.000000" stroke="none" 
	d="
M185.422638,146.775833 
	C184.998749,144.982101 185.031815,143.291794 185.041138,141.260773 
	C189.997574,140.828354 194.977753,140.736649 200.413483,140.594238 
	C200.249847,142.357224 199.630661,144.170898 199.001892,146.343048 
	C194.621384,146.760773 190.250488,146.820007 185.422638,146.775833 
z"/>
<path fill="#3CC2EE" opacity="1.000000" stroke="none" 
	d="
M308.973297,146.673706 
	C304.621277,146.741638 300.269226,146.809586 295.458984,146.384811 
	C295.004639,144.234222 295.008545,142.576355 295.012451,140.918488 
	C299.369171,140.887878 303.725922,140.857239 308.540833,141.313873 
	C308.990479,143.425308 308.981903,145.049515 308.973297,146.673706 
z"/>
<path fill="#4FC8EC" opacity="1.000000" stroke="none" 
	d="
M179.082886,41.480415 
	C179.926422,38.750244 180.948608,36.291965 181.970749,33.451614 
	C185.056503,35.706234 188.142319,38.342930 191.248047,41.306450 
	C189.824356,43.331570 188.380753,45.029861 186.904480,47.141220 
	C186.705795,47.466587 186.539764,47.378887 186.075348,46.890381 
	C185.586670,46.244320 185.342651,46.077675 185.044922,45.989639 
	C183.117126,44.577190 181.189316,43.164749 179.082886,41.480415 
z"/>
<path fill="#51B2DE" opacity="1.000000" stroke="none" 
	d="
M235.904694,151.105133 
	C233.823517,149.710266 231.742340,148.315414 229.359253,146.518433 
	C228.021408,144.371124 226.985489,142.625946 225.949554,140.880768 
	C231.628159,138.983490 235.759903,141.263870 239.002182,146.398239 
	C237.919174,148.404831 236.911926,149.754974 235.904694,151.105133 
z"/>
<path fill="#44A7DC" opacity="1.000000" stroke="none" 
	d="
M225.502319,140.820923 
	C226.985489,142.625946 228.021408,144.371124 229.018707,146.413559 
	C225.284698,146.763428 221.589294,146.816025 217.439194,146.780640 
	C216.679718,145.010681 216.374954,143.328751 216.038513,141.273468 
	C219.022919,140.853790 222.039001,140.807449 225.502319,140.820923 
z"/>
<path fill="#56C7E7" opacity="1.000000" stroke="none" 
	d="
M162.983673,174.888733 
	C163.341751,174.310135 163.699829,173.731537 164.057922,173.152939 
	C163.468185,173.080658 162.878464,173.008392 161.975586,172.880096 
	C164.143433,173.371994 167.536377,173.137283 168.859421,174.678955 
	C170.300949,176.358673 170.777542,180.091537 169.893829,182.173294 
	C169.117722,184.001480 165.969864,185.008133 163.688828,185.930893 
	C162.611984,186.366501 161.112045,185.756210 159.369141,185.517334 
	C159.864685,184.748184 160.794876,184.081497 162.273651,183.176071 
	C164.508438,181.743759 166.194611,180.550201 167.880798,179.356644 
	C166.248428,177.867340 164.616058,176.378036 162.983673,174.888733 
z"/>
<path fill="#4B97D0" opacity="1.000000" stroke="none" 
	d="
M207.991333,167.952637 
	C202.972702,168.011032 197.954071,168.069443 192.471283,167.681946 
	C192.674179,165.505661 193.341217,163.775269 194.008255,162.044891 
	C197.368042,161.995789 200.727814,161.946686 204.302765,162.239227 
	C203.729233,163.581238 202.940521,164.581589 202.151794,165.581940 
	C203.064941,166.051346 203.950653,166.588623 204.898727,166.971527 
	C205.898590,167.375336 206.957962,167.631805 207.991333,167.952637 
z"/>
<path fill="#4775B8" opacity="1.000000" stroke="none" 
	d="
M181.999176,167.935104 
	C176.375488,168.026825 170.738998,168.363174 165.135406,168.070343 
	C163.308197,167.974838 160.235855,166.452057 160.037277,165.212814 
	C159.457352,161.593475 162.642365,161.841125 165.143463,161.822464 
	C166.136520,161.815048 167.129868,161.845108 168.562012,162.369507 
	C168.528946,166.130264 169.980331,167.292877 173.163132,167.040863 
	C175.759430,166.835297 178.384979,166.999283 181.247559,167.001099 
	C181.664230,167.004501 181.830887,167.006210 181.997711,167.239731 
	C181.997864,167.471527 181.999176,167.935104 181.999176,167.935104 
z"/>
<path fill="#4FA3D4" opacity="1.000000" stroke="none" 
	d="
M118.608353,21.068382 
	C115.129105,24.676672 119.664413,26.212259 120.948685,28.895592 
	C118.309853,30.067093 115.523697,30.916090 112.364700,31.781605 
	C112.010849,29.059099 112.029854,26.320078 112.008713,23.215584 
	C114.055496,22.244717 116.142441,21.639322 118.608353,21.068382 
z"/>
<path fill="#4C8AC5" opacity="1.000000" stroke="none" 
	d="
M181.997559,167.007935 
	C181.830887,167.006210 181.664230,167.004501 181.249252,166.536957 
	C180.975784,164.802643 180.950623,163.534180 180.925461,162.265717 
	C184.983490,162.140350 189.041504,162.014969 193.553894,161.967239 
	C193.341217,163.775269 192.674179,165.505661 192.010712,167.603882 
	C189.961441,168.026352 187.908569,168.080963 185.214081,167.793762 
	C183.714142,167.303925 182.855850,167.155930 181.997559,167.007935 
z"/>
<path fill="#39BDEA" opacity="1.000000" stroke="none" 
	d="
M235.928986,151.089874 
	C236.911926,149.754974 237.919174,148.404831 239.101334,146.706573 
	C242.375824,149.109146 245.475388,151.859818 248.754456,154.902008 
	C246.764069,155.638245 244.594162,156.082962 242.178299,156.822708 
	C241.588287,157.055725 241.311905,156.884521 240.951172,156.116928 
	C240.529907,155.419998 240.260651,155.210236 239.991379,155.000488 
	C239.991379,155.000488 240.000610,154.999390 240.000610,154.652100 
	C239.652084,153.476227 239.303589,152.647644 238.955093,151.819077 
	C238.519730,152.146271 238.084366,152.473450 237.649002,152.800644 
	C237.649002,152.800644 237.247940,152.577530 237.037079,152.110535 
	C236.519913,151.443207 236.213608,151.242874 235.907288,151.042557 
	C235.907288,151.042557 235.953293,151.074631 235.928986,151.089874 
z"/>
<path fill="#48A3D7" opacity="1.000000" stroke="none" 
	d="
M208.450134,168.029999 
	C206.957962,167.631805 205.898590,167.375336 204.898727,166.971527 
	C203.950653,166.588623 203.064941,166.051346 202.151794,165.581940 
	C202.940521,164.581589 203.729233,163.581238 204.754959,162.316269 
	C208.685867,162.001602 212.379761,161.951523 216.254395,162.252090 
	C215.805054,162.733170 215.095154,162.721954 214.561157,163.022888 
	C213.375290,163.691208 212.277603,164.515991 211.143967,165.276978 
	C212.306702,165.850586 213.424957,166.762360 214.642075,166.922470 
	C216.725449,167.196503 218.870682,167.000076 220.999298,167.246399 
	C221.008652,167.491592 221.022797,167.982101 221.022797,167.982101 
	C216.984848,168.023849 212.946899,168.065598 208.450134,168.029999 
z"/>
<path fill="#EFF9FC" opacity="1.000000" stroke="none" 
	d="
M216.644974,96.830811 
	C214.884918,95.977005 212.854858,95.408066 211.501480,94.125221 
	C210.980667,93.631569 211.628738,90.636711 212.392807,90.313171 
	C214.110458,89.585831 216.233719,89.816330 218.573257,90.164993 
	C219.248077,91.240463 219.541519,91.807884 219.834946,92.375313 
	C220.353088,92.748146 220.871216,93.120979 221.728943,93.478546 
	C222.068527,93.463264 222.037994,93.446732 221.696747,93.587418 
	C219.785309,94.762337 218.215134,95.796570 216.644974,96.830811 
z"/>
<path fill="#4390CB" opacity="1.000000" stroke="none" 
	d="
M267.440002,146.932098 
	C266.993988,145.171646 266.998322,143.481064 267.006927,141.366211 
	C270.046478,140.885086 273.081696,140.828232 276.561615,141.259491 
	C276.991791,143.393616 276.977295,145.039627 276.962769,146.685669 
	C273.938599,146.791092 270.914459,146.896515 267.440002,146.932098 
z"/>
<path fill="#487BBC" opacity="1.000000" stroke="none" 
	d="
M180.550705,162.152344 
	C180.950623,163.534180 180.975784,164.802643 180.999252,166.535248 
	C178.384979,166.999283 175.759430,166.835297 173.163132,167.040863 
	C169.980331,167.292877 168.528946,166.130264 169.000336,162.451050 
	C172.725159,162.027130 176.450546,162.033051 180.550705,162.152344 
z"/>
<path fill="#48A3D7" opacity="1.000000" stroke="none" 
	d="
M277.407623,146.779327 
	C276.977295,145.039627 276.991791,143.393616 277.012390,141.332230 
	C280.047607,140.864761 283.076782,140.812653 286.549377,141.211975 
	C286.656464,143.352005 286.320038,145.040604 285.983612,146.729218 
	C283.273224,146.777161 280.562866,146.825089 277.407623,146.779327 
z"/>
<path fill="#77CDE1" opacity="1.000000" stroke="none" 
	d="
M330.404297,151.007675 
	C329.829254,150.206772 329.569366,149.232162 329.100403,147.683105 
	C328.827209,144.642075 328.763062,142.175476 328.698914,139.708893 
	C328.815735,138.737274 328.932526,137.765656 329.113037,136.304901 
	C335.089020,139.403702 335.662384,144.985596 330.404297,151.007675 
z"/>
<path fill="#46B0E1" opacity="1.000000" stroke="none" 
	d="
M286.429932,146.805786 
	C286.320038,145.040604 286.656464,143.352005 286.999329,141.284027 
	C289.380707,140.860611 291.755615,140.816574 294.571503,140.845520 
	C295.008545,142.576355 295.004639,144.234222 295.001343,146.302002 
	C292.293427,146.768738 289.584839,146.825531 286.429932,146.805786 
z"/>
<path fill="#44A7DC" opacity="1.000000" stroke="none" 
	d="
M220.989944,167.001221 
	C218.870682,167.000076 216.725449,167.196503 214.642075,166.922470 
	C213.424957,166.762360 212.306702,165.850586 211.143967,165.276978 
	C212.277603,164.515991 213.375290,163.691208 214.561157,163.022888 
	C215.095154,162.721954 215.805054,162.733170 216.708496,162.330536 
	C218.386032,162.014694 219.790253,161.971039 221.595215,162.369537 
	C221.660614,164.208206 221.325287,165.604706 220.989944,167.001221 
z"/>
<path fill="#3BB5E7" opacity="1.000000" stroke="none" 
	d="
M220.999298,167.246399 
	C221.325287,165.604706 221.660614,164.208206 222.010040,162.449783 
	C223.953354,163.167786 225.882568,164.247681 227.868500,165.670090 
	C227.422241,166.927979 226.439819,167.888626 226.521057,168.748825 
	C226.667618,170.300781 227.450470,171.792633 227.947830,173.693237 
	C225.813217,172.159653 223.698349,170.242432 221.303131,168.153656 
	C221.022797,167.982101 221.008652,167.491592 220.999298,167.246399 
z"/>
<path fill="#47C8EE" opacity="1.000000" stroke="none" 
	d="
M250.563248,183.950378 
	C251.318481,185.536606 251.657776,187.061981 252.052521,188.993408 
	C249.433823,189.438843 246.759628,189.478256 243.669357,189.419647 
	C243.818817,187.738281 244.384354,186.154922 245.038528,184.203125 
	C246.800537,183.852982 248.473923,183.871262 250.563248,183.950378 
z"/>
<path fill="#47C8EE" opacity="1.000000" stroke="none" 
	d="
M309.394135,146.767426 
	C308.981903,145.049515 308.990479,143.425308 309.000366,141.391632 
	C309.739441,140.921280 310.477234,140.860413 311.583923,140.844360 
	C313.045166,142.738312 314.137482,144.587463 315.102539,146.740814 
	C313.255157,146.983734 311.535065,146.922440 309.394135,146.767426 
z"/>
<path fill="#44C4EC" opacity="1.000000" stroke="none" 
	d="
M261.003662,167.004883 
	C260.338531,165.900711 259.673431,164.796524 259.003296,163.348541 
	C262.088226,163.975174 266.932617,160.421875 268.070221,166.951263 
	C268.102753,167.392090 267.792084,167.410828 267.196716,167.258514 
	C264.735443,167.072433 262.869568,167.038651 261.003662,167.004883 
z"/>
<path fill="#6BCCE2" opacity="1.000000" stroke="none" 
	d="
M212.814056,68.671204 
	C206.534805,68.834816 206.425522,68.651787 209.056458,62.169785 
	C210.313644,63.961033 211.535492,66.145821 212.814056,68.671204 
z"/>
<path fill="#5BC9E9" opacity="1.000000" stroke="none" 
	d="
M247.230804,120.144844 
	C243.167068,120.351837 239.345291,120.511192 235.275772,120.368149 
	C239.352707,119.824310 243.677383,119.582870 248.425079,119.501251 
	C248.389664,119.806450 247.931213,119.951820 247.230804,120.144844 
z"/>
<path fill="#77CDE1" opacity="1.000000" stroke="none" 
	d="
M217.001862,96.897644 
	C218.215134,95.796570 219.785309,94.762337 221.691620,93.601906 
	C221.259445,94.925194 220.491165,96.374680 219.399918,97.970505 
	C218.504211,97.732727 217.931473,97.348610 217.001862,96.897644 
z"/>
<path fill="#77CDE1" opacity="1.000000" stroke="none" 
	d="
M300.156433,114.574837 
	C298.197968,114.872078 295.984436,114.924828 293.301147,114.948608 
	C295.188080,114.723206 297.544708,114.526772 300.156433,114.574837 
z"/>
<path fill="#4FC8EC" opacity="1.000000" stroke="none" 
	d="
M195.259430,44.373142 
	C193.898804,43.973629 192.527985,43.234470 191.233170,42.105072 
	C192.622543,42.487717 193.935883,43.260609 195.259430,44.373142 
z"/>
<path fill="#4FA3D4" opacity="1.000000" stroke="none" 
	d="
M126.588226,19.943960 
	C124.857033,20.415558 122.713707,20.829506 120.248154,21.104504 
	C122.009315,20.605806 124.092697,20.246058 126.588226,19.943960 
z"/>
<path fill="#47C8EE" opacity="1.000000" stroke="none" 
	d="
M244.969604,183.615601 
	C243.706497,184.123581 242.285553,184.362900 240.159164,184.721039 
	C240.914383,183.624878 241.363754,182.972641 241.983246,182.037689 
	C243.039490,182.285629 243.925629,182.816284 244.969604,183.615601 
z"/>
<path fill="#4FBFE6" opacity="1.000000" stroke="none" 
	d="
M250.466461,125.893311 
	C252.486496,125.651665 254.940430,125.495323 257.678894,125.587143 
	C255.609039,125.883080 253.254715,125.930855 250.466461,125.893311 
z"/>
<path fill="#64CAE6" opacity="1.000000" stroke="none" 
	d="
M202.130188,51.526299 
	C201.135239,50.766060 200.083176,49.686760 199.048981,48.223385 
	C200.068924,48.961952 201.070999,50.084595 202.130188,51.526299 
z"/>
<path fill="#4FC8EC" opacity="1.000000" stroke="none" 
	d="
M198.038193,46.614044 
	C196.514160,47.691219 194.863464,48.495728 195.199982,45.074997 
	C196.173477,45.239616 197.053024,45.769039 198.038193,46.614044 
z"/>
<path fill="#77CDE1" opacity="1.000000" stroke="none" 
	d="
M327.750732,134.706604 
	C325.881927,134.974518 323.749359,134.960831 321.150604,134.895782 
	C322.951935,134.704620 325.219482,134.564819 327.750732,134.706604 
z"/>
<path fill="#51B2DE" opacity="1.000000" stroke="none" 
	d="
M237.770325,153.042999 
	C238.084366,152.473450 238.519730,152.146271 238.955093,151.819077 
	C239.303589,152.647644 239.652084,153.476227 239.999329,154.656235 
	C239.295914,154.433578 238.593781,153.859467 237.770325,153.042999 
z"/>
<path fill="#56C7E7" opacity="1.000000" stroke="none" 
	d="
M260.997498,167.240692 
	C262.869568,167.038651 264.735443,167.072433 267.072845,167.164322 
	C265.635193,167.518738 263.726074,167.815048 261.397827,168.029770 
	C260.978699,167.948196 260.991302,167.476532 260.997498,167.240692 
z"/>
<path fill="#77CDE1" opacity="1.000000" stroke="none" 
	d="
M303.917114,116.679916 
	C303.068909,116.516548 302.085449,116.057129 301.057098,115.237167 
	C301.935425,115.379036 302.858643,115.881447 303.917114,116.679916 
z"/>
<path fill="#4C8AC5" opacity="1.000000" stroke="none" 
	d="
M81.427917,50.203575 
	C81.859192,49.523689 82.615540,48.788956 83.753082,48.083824 
	C83.340508,48.791859 82.546753,49.470291 81.427917,50.203575 
z"/>
<path fill="#72CDE1" opacity="1.000000" stroke="none" 
	d="
M281.408386,168.053345 
	C282.510468,167.812668 284.027008,167.639404 285.776764,167.731964 
	C284.614288,168.038773 283.218567,168.079758 281.408386,168.053345 
z"/>
<path fill="#77CDE1" opacity="1.000000" stroke="none" 
	d="
M304.281799,129.838867 
	C304.419128,129.015518 304.847595,128.061386 305.613098,127.048141 
	C305.491058,127.895386 305.031982,128.801727 304.281799,129.838867 
z"/>
<path fill="#77CDE1" opacity="1.000000" stroke="none" 
	d="
M306.315735,125.891731 
	C306.054382,124.678047 306.034790,123.193863 306.049438,121.263046 
	C306.241608,122.418030 306.399536,124.019623 306.315735,125.891731 
z"/>
<path fill="#487BBC" opacity="1.000000" stroke="none" 
	d="
M181.997711,167.239731 
	C182.855850,167.155930 183.714142,167.303925 184.781921,167.707657 
	C184.239700,168.011185 183.487991,168.059006 182.367722,168.020966 
	C181.999176,167.935104 181.997864,167.471527 181.997711,167.239731 
z"/>
<path fill="#4FBFE6" opacity="1.000000" stroke="none" 
	d="
M152.963898,172.622681 
	C152.728195,172.125473 152.576263,171.260300 152.650513,170.203033 
	C152.933716,170.758850 152.990707,171.506775 152.963898,172.622681 
z"/>
<path fill="#4FBFE6" opacity="1.000000" stroke="none" 
	d="
M153.212891,177.550873 
	C152.989227,177.084000 152.709351,176.254486 152.665192,175.216583 
	C152.986191,175.734894 153.071442,176.461563 153.212891,177.550873 
z"/>
<path fill="#46B0E1" opacity="1.000000" stroke="none" 
	d="
M146.618484,179.072220 
	C146.167435,179.327316 145.352524,179.535797 144.321564,179.570618 
	C144.821869,179.273193 145.538254,179.149414 146.618484,179.072220 
z"/>
<path fill="#3BB5E7" opacity="1.000000" stroke="none" 
	d="
M228.005142,174.347168 
	C228.354813,174.118607 228.791443,174.162949 229.228088,174.207291 
	C229.133133,174.434799 229.038177,174.662292 228.734467,174.942139 
	C228.381180,174.869659 228.236649,174.744858 228.005142,174.347168 
z"/>
<path fill="#47C8EE" opacity="1.000000" stroke="none" 
	d="
M236.071930,183.239548 
	C236.326874,183.179733 236.653824,183.361664 236.975632,183.775787 
	C236.694962,183.832413 236.419449,183.656860 236.071930,183.239548 
z"/>
<path fill="#73CEE2" opacity="1.000000" stroke="none" 
	d="
M269.344604,195.729965 
	C269.562347,195.443085 270.061432,195.232880 270.844299,195.042816 
	C270.627350,195.310852 270.126648,195.558731 269.344604,195.729965 
z"/>
<path fill="#4775B8" opacity="1.000000" stroke="none" 
	d="
M66.368385,73.145721 
	C66.275658,72.698936 66.441460,72.039795 66.915176,71.213806 
	C67.024368,71.675751 66.825638,72.304565 66.368385,73.145721 
z"/>
<path fill="#66CAE4" opacity="1.000000" stroke="none" 
	d="
M265.274597,125.894302 
	C264.941223,125.808823 264.964905,125.404625 264.983673,125.203079 
	C265.539764,125.142937 266.077118,125.284348 266.792786,125.643578 
	C266.516754,125.900856 266.062378,125.940323 265.274597,125.894302 
z"/>
<path fill="#77CDE1" opacity="1.000000" stroke="none" 
	d="
M326.309326,153.053772 
	C326.529510,152.722733 327.075745,152.403137 327.960693,152.118256 
	C327.744690,152.457047 327.190033,152.761139 326.309326,153.053772 
z"/>
<path fill="#4FC8EC" opacity="1.000000" stroke="none" 
	d="
M181.766876,32.786678 
	C181.379990,32.831425 180.840652,32.628174 180.163940,32.161873 
	C180.555862,32.112106 181.085144,32.325394 181.766876,32.786678 
z"/>
<path fill="#73CEE2" opacity="1.000000" stroke="none" 
	d="
M266.028625,195.199600 
	C266.167694,195.026688 266.407959,195.092468 266.767029,195.352997 
	C266.905853,195.474640 266.508057,195.557602 266.508057,195.557602 
	C266.508057,195.557602 266.149933,195.365204 266.028625,195.199600 
z"/>
<path fill="#4FC8EC" opacity="1.000000" stroke="none" 
	d="
M175.824188,39.335503 
	C176.005951,39.248055 176.351974,39.388855 176.845032,39.774326 
	C176.657532,39.867252 176.322998,39.715500 175.824188,39.335503 
z"/>
<path fill="#5FC8E7" opacity="1.000000" stroke="none" 
	d="
M241.921265,189.268143 
	C242.049240,189.076233 242.283340,189.088806 242.849869,189.220917 
	C242.797318,189.384506 242.412369,189.428574 241.921265,189.268143 
z"/>
<path fill="#46B0E1" opacity="1.000000" stroke="none" 
	d="
M148.331268,187.696136 
	C148.360352,187.489868 148.663025,187.316742 149.237595,187.141769 
	C149.207947,187.336380 148.906387,187.532837 148.331268,187.696136 
z"/>
<path fill="#56C7E7" opacity="1.000000" stroke="none" 
	d="
M156.260223,186.053238 
	C156.259628,185.880646 156.519012,185.724197 156.888443,185.715302 
	C156.839050,185.931686 156.679626,186.000519 156.260223,186.053238 
z"/>
<path fill="#5BC9E9" opacity="1.000000" stroke="none" 
	d="
M185.126694,46.206306 
	C185.342651,46.077675 185.586670,46.244320 185.879395,46.688080 
	C185.654251,46.848423 185.396469,46.693886 185.126694,46.206306 
z"/>
<path fill="#46B0E1" opacity="1.000000" stroke="none" 
	d="
M144.347870,127.070763 
	C144.307190,126.832016 144.564835,126.526192 145.125244,126.148804 
	C145.167389,126.386063 144.906784,126.694870 144.347870,127.070763 
z"/>
<path fill="#47C8EE" opacity="1.000000" stroke="none" 
	d="
M237.069397,184.278229 
	C237.263153,184.219696 237.535843,184.411789 237.910736,184.838684 
	C237.724747,184.891937 237.436539,184.710388 237.069397,184.278229 
z"/>
<path fill="#6BCCE2" opacity="1.000000" stroke="none" 
	d="
M214.008728,71.675797 
	C213.786407,71.689491 213.500778,71.407074 213.172592,70.812843 
	C213.401825,70.793907 213.673615,71.086800 214.008728,71.675797 
z"/>
<path fill="#77CDE1" opacity="1.000000" stroke="none" 
	d="
M220.003036,87.697861 
	C219.803635,87.752701 219.513840,87.556389 219.134186,87.105995 
	C219.333755,87.050171 219.623199,87.248444 220.003036,87.697861 
z"/>
<path fill="#77CDE1" opacity="1.000000" stroke="none" 
	d="
M220.958099,88.755081 
	C220.761551,88.804123 220.493240,88.598763 220.138489,88.150131 
	C220.330139,88.104805 220.608231,88.302750 220.958099,88.755081 
z"/>
<path fill="#77CDE1" opacity="1.000000" stroke="none" 
	d="
M305.930939,119.720184 
	C305.714294,119.725945 305.460144,119.449348 305.178101,118.881073 
	C305.397949,118.872200 305.645691,119.155014 305.930939,119.720184 
z"/>
<path fill="#51B2DE" opacity="1.000000" stroke="none" 
	d="
M240.079971,155.241241 
	C240.260651,155.210236 240.529907,155.419998 240.875198,155.880249 
	C240.690338,155.914490 240.429443,155.698242 240.079971,155.241241 
z"/>
<path fill="#4C85C1" opacity="1.000000" stroke="none" 
	d="
M88.789185,174.331253 
	C88.975479,174.232468 89.326103,174.369537 89.839668,174.742020 
	C89.652916,174.840652 89.303223,174.703888 88.789185,174.331253 
z"/>
<path fill="#77CDE1" opacity="1.000000" stroke="none" 
	d="
M303.229675,130.881744 
	C303.089233,130.637589 303.271179,130.385635 303.754578,130.097412 
	C303.932465,130.350723 303.764496,130.621674 303.229675,130.881744 
z"/>
<path fill="#4C85C1" opacity="1.000000" stroke="none" 
	d="
M86.772179,172.530945 
	C87.066292,172.444382 87.413406,172.677765 87.829437,173.235718 
	C87.540627,173.323822 87.182899,173.087372 86.772179,172.530945 
z"/>
<path fill="#77CDE1" opacity="1.000000" stroke="none" 
	d="
M299.291687,132.926300 
	C299.293915,132.706314 299.586700,132.458755 300.178619,132.192749 
	C300.179260,132.415756 299.880737,132.657227 299.291687,132.926300 
z"/>
<path fill="#77CDE1" opacity="1.000000" stroke="none" 
	d="
M329.042542,135.636932 
	C328.842804,135.731934 328.542297,135.586380 328.124634,135.212250 
	C328.318909,135.121231 328.630341,135.258804 329.042542,135.636932 
z"/>
<path fill="#76CDEB" opacity="1.000000" stroke="none" 
	d="
M149.466919,137.793335 
	C149.580215,137.988953 149.466919,138.337845 149.093933,138.809967 
	C148.969604,138.604340 149.104980,138.275482 149.466919,137.793335 
z"/>
<path fill="#4FBFE6" opacity="1.000000" stroke="none" 
	d="
M152.947678,141.753662 
	C152.731094,141.827454 152.562759,141.662918 152.447052,141.467255 
	C152.417679,141.417633 152.555832,141.268921 152.776260,141.078949 
	C152.962158,141.162704 152.988800,141.333237 152.947678,141.753662 
z"/>
<path fill="#76CDEB" opacity="1.000000" stroke="none" 
	d="
M148.349884,145.227890 
	C148.736908,145.193237 148.809387,145.481201 148.544693,145.933838 
	C148.368942,145.864014 148.311539,145.681335 148.349884,145.227890 
z"/>
<path fill="#57ABD7" opacity="1.000000" stroke="none" 
	d="
M128.792328,151.356827 
	C128.993729,151.277878 129.350525,151.448837 129.830978,151.897949 
	C129.619003,151.986298 129.283356,151.796509 128.792328,151.356827 
z"/>
<path fill="#51B2DE" opacity="1.000000" stroke="none" 
	d="
M236.000153,151.313568 
	C236.213608,151.242874 236.519913,151.443207 236.944748,151.900452 
	C236.739838,151.966446 236.416428,151.775497 236.000153,151.313568 
z"/>
<path fill="#77CDE1" opacity="1.000000" stroke="none" 
	d="
M322.917725,153.282425 
	C323.003784,153.112030 323.257996,153.092590 323.894775,153.110535 
	C323.880188,153.243073 323.483032,153.338226 322.917725,153.282425 
z"/>
<path fill="#EFF9FC" opacity="1.000000" stroke="none" 
	d="
M118.596085,90.176491 
	C119.131729,87.976402 119.915031,86.081207 120.698326,84.186005 
	C122.124168,84.793671 124.155350,85.036667 124.803612,86.112762 
	C125.436989,87.164162 125.042015,90.168404 124.426918,90.382057 
	C122.755959,90.962471 120.729355,90.518982 118.596085,90.176491 
z"/>
<path fill="#EFF9FC" opacity="1.000000" stroke="none" 
	d="
M162.630646,174.969620 
	C164.616058,176.378036 166.248428,177.867340 167.880798,179.356644 
	C166.194611,180.550201 164.508438,181.743759 162.435959,182.913666 
	C157.990402,179.648041 158.018494,178.682297 162.630646,174.969620 
z"/>
<path fill="#F3FAFC" opacity="1.000000" stroke="none" 
	d="
M151.944305,84.122208 
	C153.177811,86.002708 154.311920,87.774490 154.676437,89.692528 
	C154.774567,90.208817 152.386429,91.929359 151.403229,91.738533 
	C150.106689,91.486916 147.933929,89.460014 148.126251,88.957802 
	C148.816803,87.154640 150.344604,85.672119 151.944305,84.122208 
z"/>
<path fill="#E7F7FC" opacity="1.000000" stroke="none" 
	d="
M161.719070,106.526581 
	C163.835480,105.670998 165.792145,105.154305 167.748825,104.637611 
	C168.135834,106.309822 168.962814,108.045425 168.734680,109.629013 
	C168.610123,110.493652 166.661942,111.756020 165.600388,111.696350 
	C162.860901,111.542419 160.965546,110.095261 161.719070,106.526581 
z"/>
<path fill="#77CDE1" opacity="1.000000" stroke="none" 
	d="
M219.869751,92.022873 
	C219.541519,91.807884 219.248077,91.240463 218.901520,90.354568 
	C219.200470,90.580879 219.552521,91.125656 219.869751,92.022873 
z"/>
<path fill="#F3FAFC" opacity="1.000000" stroke="none" 
	d="
M291.124023,164.125168 
	C293.367371,162.901871 295.730591,160.528931 297.758240,160.787491 
	C299.661499,161.030197 302.469635,163.993835 302.560181,165.872009 
	C302.650543,167.746994 300.165131,170.189316 298.226135,171.556168 
	C297.022980,172.404327 294.734985,171.713562 292.560516,171.713562 
	C292.089600,169.393692 291.638214,167.170029 291.176392,164.551819 
	C291.165955,164.157303 291.097351,164.124435 291.124023,164.125168 
z"/>
<path fill="#F6FBFC" opacity="1.000000" stroke="none" 
	d="
M294.997803,129.044601 
	C293.762512,127.556976 292.527252,126.069344 291.143188,124.287277 
	C291.061127,123.327515 291.127899,122.662186 291.196167,121.666840 
	C293.225159,120.174072 295.252655,119.011322 297.889343,117.878937 
	C298.498596,117.909294 298.996094,117.911354 298.996094,117.911354 
	C299.467255,118.210632 299.938385,118.509911 300.778320,119.145653 
	C301.431274,119.654312 301.715454,119.826500 301.999603,119.998688 
	C303.838867,123.634895 302.891083,126.501526 299.045135,128.906525 
	C298.498474,129.094177 298.038879,129.280960 298.038879,129.280960 
	C297.580017,129.250732 297.121185,129.220505 296.082092,129.122833 
	C295.333862,129.051788 295.165833,129.048187 294.997803,129.044601 
z"/>
<path fill="#77CDE1" opacity="1.000000" stroke="none" 
	d="
M298.918396,117.761642 
	C298.996094,117.911354 298.498596,117.909294 298.262939,117.829826 
	C298.298431,117.704216 298.569550,117.658073 298.918396,117.761642 
z"/>
<path fill="#77CDE1" opacity="1.000000" stroke="none" 
	d="
M301.887512,119.771240 
	C301.715454,119.826500 301.431274,119.654312 301.035583,119.253922 
	C301.207855,119.198418 301.491638,119.371109 301.887512,119.771240 
z"/>
<path fill="#77CDE1" opacity="1.000000" stroke="none" 
	d="
M295.072113,129.200500 
	C295.165833,129.048187 295.333862,129.051788 295.737640,129.144638 
	C295.697723,129.274719 295.422089,129.315567 295.072113,129.200500 
z"/>
<path fill="#77CDE1" opacity="1.000000" stroke="none" 
	d="
M298.152740,129.399078 
	C298.038879,129.280960 298.498474,129.094177 298.746399,129.090683 
	C298.868744,129.472717 298.626160,129.616058 298.152740,129.399078 
z"/>
<path fill="#F6FBFC" opacity="1.000000" stroke="none" 
	d="
M328.520294,139.563232 
	C328.763062,142.175476 328.827209,144.642075 328.786285,147.462891 
	C328.225769,148.057495 327.770325,148.297867 326.893738,148.759338 
	C326.316742,149.049820 326.160858,149.119186 326.005005,149.188553 
	C322.787415,149.486526 319.422729,148.987595 318.964752,145.414368 
	C318.675537,143.157700 320.497253,140.630478 322.087341,138.124603 
	C323.871033,138.014923 324.939423,138.005234 326.007843,137.995560 
	C326.007843,137.995560 326.310303,138.139603 326.655090,138.370087 
	C327.338165,138.764633 327.676392,138.928696 328.014648,139.092758 
	C328.014648,139.092758 328.341675,139.417587 328.520294,139.563232 
z"/>
<path fill="#77CDE1" opacity="1.000000" stroke="none" 
	d="
M325.799866,137.736069 
	C324.939423,138.005234 323.871033,138.014923 322.405426,137.974579 
	C323.202789,137.775223 324.397369,137.625900 325.799866,137.736069 
z"/>
<path fill="#77CDE1" opacity="1.000000" stroke="none" 
	d="
M327.869568,138.833450 
	C327.676392,138.928696 327.338165,138.764633 326.822510,138.375656 
	C327.004913,138.291855 327.364685,138.432999 327.869568,138.833450 
z"/>
<path fill="#77CDE1" opacity="1.000000" stroke="none" 
	d="
M326.125549,149.322861 
	C326.160858,149.119186 326.316742,149.049820 326.727753,148.960907 
	C326.737305,149.113297 326.491699,149.285233 326.125549,149.322861 
z"/>
<path fill="#F3FAFC" opacity="1.000000" stroke="none" 
	d="
M264.924683,181.513000 
	C268.974335,179.350128 272.396759,179.817230 273.865265,184.122345 
	C275.336578,188.435745 272.819427,190.869492 268.348938,191.955017 
	C261.182800,189.133026 260.446716,186.811615 264.924683,181.513000 
z"/>
</svg>