<svg version="1.1" id="Layer_1" xmlns="http://www.w3.org/2000/svg" xmlns:xlink="http://www.w3.org/1999/xlink" x="0px" y="0px"
	 width="100%" viewBox="0 0 1000 1000" enable-background="new 0 0 1000 1000" xml:space="preserve">
<path fill="#000000" opacity="1.000000" stroke="none" />
<path fill="#0D8DDC" opacity="1.000000" stroke="none" 
	d="
M447.001953,3.166600 
	C449.502808,2.693525 452.003662,2.220450 454.252258,1.373688 
	C461.020966,1.000000 468.041901,1.000000 475.531433,1.468657 
	C476.100647,16.558224 476.059479,31.181797 476.334167,45.799435 
	C476.780731,69.565376 477.470673,93.326637 477.987976,117.091393 
	C478.378876,135.046234 478.670227,153.003281 478.988373,170.959656 
	C479.336060,190.580933 479.778595,210.201477 479.965546,229.824387 
	C480.130524,247.142334 479.911804,264.464081 480.101715,281.781525 
	C480.128540,284.227692 481.513092,286.658966 482.140045,289.415680 
	C472.700104,300.895172 463.389282,312.056122 453.988220,322.793579 
	C453.599640,320.404602 453.097412,318.445190 453.038452,316.472504 
	C452.790710,308.183868 452.716125,299.890259 452.503510,291.600372 
	C452.025940,272.978668 451.419037,254.359909 451.022919,235.736588 
	C450.591217,215.438278 450.330536,195.136292 450.009308,174.835678 
	C449.664368,153.035629 449.355438,131.235001 448.993958,109.435234 
	C448.693298,91.300591 448.347382,73.166679 448.006653,55.032719 
	C447.681763,37.743824 447.337616,20.455292 447.001953,3.166600 
z"/>
<path fill="#0C96D9" opacity="1.000000" stroke="none" 
	d="
M482.269165,289.097107 
	C481.513092,286.658966 480.128540,284.227692 480.101715,281.781525 
	C479.911804,264.464081 480.130524,247.142334 479.965546,229.824387 
	C479.778595,210.201477 479.336060,190.580933 478.988373,170.959656 
	C478.670227,153.003281 478.378876,135.046234 477.987976,117.091393 
	C477.470673,93.326637 476.780731,69.565376 476.334167,45.799435 
	C476.059479,31.181797 476.100647,16.558224 476.000000,1.468657 
	C486.687561,1.000000 497.375122,1.000000 508.449707,1.409728 
	C508.557892,4.120772 508.006256,6.426669 508.044800,8.722656 
	C508.287750,23.190857 508.726685,37.655731 508.977478,52.123844 
	C509.369812,74.754120 509.638153,97.386520 510.008362,120.017212 
	C510.296844,137.650467 510.696777,155.281891 510.981445,172.915207 
	C511.354797,196.045731 511.664185,219.177292 511.998352,242.308456 
	C512.017639,243.641174 511.704437,245.075577 512.100159,246.280655 
	C512.559509,247.679459 513.631104,248.877213 514.285950,250.476746 
	C503.513000,263.559875 492.891083,276.328491 482.269165,289.097107 
z"/>
<path fill="#0CA0D5" opacity="1.000000" stroke="none" 
	d="
M514.436951,250.162262 
	C513.631104,248.877213 512.559509,247.679459 512.100159,246.280655 
	C511.704437,245.075577 512.017639,243.641174 511.998352,242.308456 
	C511.664185,219.177292 511.354797,196.045731 510.981445,172.915207 
	C510.696777,155.281891 510.296844,137.650467 510.008362,120.017212 
	C509.638153,97.386520 509.369812,74.754120 508.977478,52.123844 
	C508.726685,37.655731 508.287750,23.190857 508.044800,8.722656 
	C508.006256,6.426669 508.557892,4.120772 508.918365,1.409728 
	C518.687561,1.000000 528.375122,1.000000 538.540283,1.468593 
	C539.678406,31.516232 540.509460,61.092712 540.955017,90.674995 
	C541.478699,125.442451 541.567139,160.216476 542.093384,194.983871 
	C542.189819,201.356277 543.476074,207.710678 544.094055,214.395020 
	C534.128967,226.531845 524.282959,238.347061 514.436951,250.162262 
z"/>
<path fill="#0BA9D2" opacity="1.000000" stroke="none" 
	d="
M544.213135,214.073395 
	C543.476074,207.710678 542.189819,201.356277 542.093384,194.983871 
	C541.567139,160.216476 541.478699,125.442451 540.955017,90.674995 
	C540.509460,61.092712 539.678406,31.516232 539.008911,1.468593 
	C540.066711,1.000000 541.133362,1.000000 542.600037,0.999989 
	C544.046021,1.666821 545.036865,2.792261 546.146912,2.925683 
	C553.073120,3.758202 560.028442,4.346694 566.966736,5.084511 
	C567.729797,5.165655 568.446655,5.681543 569.592651,6.532615 
	C570.331970,12.196866 570.887085,17.321196 570.958374,22.452250 
	C571.368958,51.993706 571.626587,81.537262 572.013245,111.079094 
	C572.278442,131.346024 572.644409,151.611771 573.042358,171.876556 
	C573.080872,173.839432 573.663635,175.791626 573.731140,177.982208 
	C563.716797,190.168213 553.964966,202.120819 544.213135,214.073395 
z"/>
<path fill="#FFFFFF" opacity="1.000000" stroke="none" 
	d="
M544.094055,214.395020 
	C553.964966,202.120819 563.716797,190.168213 574.057068,177.894226 
	C576.059753,178.224152 577.895691,178.511337 578.821777,179.584030 
	C586.565186,188.553802 594.141357,197.667984 601.873657,207.034973 
	C610.242859,217.259003 618.506287,227.186646 626.901978,237.428604 
	C635.238770,247.555099 643.443359,257.367279 651.785339,267.494629 
	C661.566162,279.376892 671.209656,290.943970 680.969238,302.809875 
	C690.669373,314.602631 700.253418,326.096527 709.953247,337.886292 
	C720.658264,350.903290 731.247498,363.624420 741.952332,376.653137 
	C748.166504,384.416016 754.265076,391.871368 761.050415,400.166168 
	C754.204041,400.166168 748.602295,400.166168 742.536377,400.097046 
	C731.048096,400.074310 720.024109,400.120667 708.535889,400.098083 
	C690.790161,400.029114 673.508606,400.029114 655.118591,400.029114 
	C673.639832,422.469574 691.279785,443.842285 709.038696,465.522583 
	C720.783081,479.851807 732.408569,493.873413 744.136597,508.219543 
	C755.456177,522.124878 766.673096,535.705811 778.003296,549.595093 
	C790.008606,564.301392 801.900635,578.699219 813.911255,593.417419 
	C822.994263,604.559021 831.958801,615.380249 841.029663,626.514771 
	C859.170044,648.855530 877.162354,670.917236 895.255859,692.895630 
	C904.021606,703.543579 912.977295,714.035156 921.846985,724.597534 
	C922.475403,725.483826 923.103821,726.370117 924.095398,727.768616 
	C922.732422,727.866821 921.720032,727.939758 919.890137,728.020142 
	C894.048767,728.074036 869.024902,728.120422 843.536865,728.097168 
	C834.715149,728.073792 826.357666,728.120117 817.536011,728.096802 
	C805.381348,728.073792 793.690796,728.120300 781.536011,728.097412 
	C769.381165,728.074097 757.690369,728.120239 745.535522,728.097290 
	C733.714294,728.074585 722.357300,728.120972 710.536011,728.098267 
	C702.380981,728.075256 694.690125,728.121338 686.535217,728.098206 
	C678.047424,728.075012 670.023682,728.121033 661.535767,728.097900 
	C653.713989,728.074829 646.356384,728.120789 638.534790,728.097717 
	C631.046692,728.074951 624.022705,728.121155 616.534668,728.098267 
	C608.713623,728.075012 601.356628,728.120972 593.535522,728.097839 
	C585.713562,728.074890 578.355652,728.121094 570.533813,728.098145 
	C562.713013,728.074951 555.356201,728.120972 547.535278,728.097656 
	C540.047180,728.074463 533.023193,728.120483 525.535400,728.097290 
	C519.047180,728.074524 513.022644,728.121033 506.534241,728.098145 
	C499.046295,728.074707 492.022217,728.120728 484.534180,728.097351 
	C475.712982,728.074280 467.355743,728.120605 458.534485,728.097656 
	C450.379883,728.074524 442.689331,728.120850 434.534729,728.097473 
	C426.713043,728.074097 419.355316,728.120361 411.533752,728.096985 
	C403.379425,728.073792 395.688965,728.120361 387.535339,728.097046 
	C381.719727,728.027161 376.367249,728.027161 369.763855,728.027161 
	C376.335388,719.973877 381.930115,713.117676 387.786377,706.076599 
	C396.573273,695.509338 405.098633,685.126892 414.098297,674.166809 
	C403.936768,674.166809 394.967316,674.166809 385.534363,674.096802 
	C379.046478,674.073547 373.022095,674.120422 366.533844,674.097107 
	C358.045532,674.073364 350.021057,674.119812 341.532776,674.096497 
	C332.712128,674.073303 324.355255,674.119995 315.534851,674.096252 
	C309.046631,674.072876 303.022003,674.119873 296.533569,674.096313 
	C288.712677,674.072876 281.355499,674.119934 273.534729,674.096252 
	C266.713104,674.072754 260.355103,674.120056 253.533417,674.096436 
	C246.045959,674.072815 239.022125,674.120056 231.534607,674.096069 
	C224.046677,674.072388 217.022430,674.119873 209.534790,674.095947 
	C203.046616,674.072083 197.021851,674.119629 190.533417,674.095764 
	C181.712097,674.072021 173.354401,674.119629 164.533081,674.095764 
	C132.056244,674.024353 100.043045,674.024353 67.164566,674.024353 
	C68.517860,671.917236 69.253792,670.687622 70.069542,669.513489 
	C90.608612,639.951538 111.165169,610.401611 131.698532,580.835693 
	C143.857620,563.327881 155.982330,545.796265 168.416214,528.091431 
	C178.796432,513.248169 188.882950,498.588806 199.255493,483.753571 
	C207.450638,472.084961 215.359772,460.592194 223.546204,448.917664 
	C231.993561,436.870178 240.163620,425.004517 248.608551,412.950989 
	C256.802277,401.265991 264.721161,389.768860 272.882385,378.057434 
	C276.872498,372.476227 280.681458,367.150818 284.352722,361.732086 
	C288.998474,354.875031 293.532196,347.942047 298.431641,340.930176 
	C306.523682,329.598511 314.298309,318.378479 322.356476,306.965179 
	C323.690399,305.421753 324.740814,304.071594 325.995972,302.458191 
	C332.386169,311.354218 338.360474,319.671265 344.456512,328.288452 
	C349.784454,336.255798 354.899017,343.987305 360.223145,351.571686 
	C365.338989,358.859344 370.671844,365.994720 375.923401,373.542969 
	C381.471436,381.717621 387.005432,389.546295 392.788849,397.727814 
	C397.227417,392.235748 401.200714,387.319366 405.472748,382.229309 
	C413.636475,372.421661 421.501465,362.787659 429.647186,352.987091 
	C437.978088,342.952667 446.028259,333.084869 454.078461,323.217041 
	C463.389282,312.056122 472.700104,300.895172 482.140015,289.415649 
	C492.891083,276.328491 503.513000,263.559875 514.285950,250.476761 
	C524.282959,238.347061 534.128967,226.531845 544.094055,214.395020 
M585.071472,400.028015 
	C575.381104,400.074005 565.690735,400.119995 555.071960,400.028320 
	C545.713989,400.074249 536.355957,400.120178 526.069885,400.028259 
	C518.379456,400.074615 510.689056,400.120972 502.070465,400.029083 
	C494.380005,400.074921 486.689575,400.120789 478.070953,400.027771 
	C468.380157,400.073395 458.689331,400.119019 448.070374,400.026550 
	C430.485382,400.026550 412.900391,400.026550 394.547607,400.026550 
	C395.826843,402.031158 396.637451,403.401886 397.543732,404.706177 
	C407.979126,419.724365 418.403137,434.750580 428.884369,449.736755 
	C435.526733,459.234039 442.260101,468.667633 449.105133,478.790619 
	C459.655884,493.779358 470.206665,508.768097 480.902069,524.380615 
	C488.820129,535.645325 496.738190,546.910034 504.884338,558.801941 
	C505.448792,559.494934 506.013245,560.187927 506.834229,561.195862 
	C514.778503,551.302917 522.439941,541.762146 530.690186,531.878723 
	C539.809875,520.620789 548.929504,509.362854 558.627747,497.760620 
	C568.823364,485.204651 579.018982,472.648682 589.787415,459.768982 
	C605.902466,440.095795 622.017578,420.422607 638.610413,400.166199 
	C620.250732,400.166199 603.125183,400.166199 585.071472,400.028015 
z"/>
<path fill="#122EFF" opacity="1.000000" stroke="none" 
	d="
M168.122528,528.275330 
	C155.982330,545.796265 143.857620,563.327881 131.698532,580.835693 
	C111.165169,610.401611 90.608612,639.951538 70.069542,669.513489 
	C69.253792,670.687622 68.517860,671.917236 67.164566,674.024353 
	C100.043045,674.024353 132.056244,674.024353 164.533844,674.553711 
	C165.329224,683.384766 165.791519,691.683655 165.965027,699.988586 
	C166.382080,719.952026 166.723068,739.917664 166.976028,759.883850 
	C167.111115,770.546021 166.873581,781.213196 167.037125,791.874573 
	C167.187500,801.678528 167.838028,811.476440 167.904907,821.279480 
	C167.945435,827.221619 167.295441,833.168579 166.955658,839.113342 
	C150.867294,825.987793 137.457825,810.288635 124.041298,794.581726 
	C102.413521,769.261536 83.983047,741.807495 68.095039,712.548523 
	C52.401073,683.647034 40.137718,653.348572 30.574942,621.970886 
	C23.973434,600.309875 18.782043,578.253784 16.025578,555.723145 
	C14.472337,543.027466 12.696532,530.309448 12.140043,517.552734 
	C11.264451,497.480957 10.318034,477.318359 11.299442,457.287170 
	C12.201939,438.866638 15.416637,420.542084 17.957747,402.223114 
	C21.935112,373.550140 30.145184,345.933777 40.045090,318.839752 
	C49.176174,293.849823 60.388348,269.809845 73.567154,246.621475 
	C85.130241,226.276016 98.187492,206.994904 112.343628,188.453156 
	C119.818008,178.663177 128.076630,169.446594 136.324814,160.280334 
	C143.755646,152.022369 151.655197,144.186172 159.663086,136.489502 
	C160.318298,141.948807 160.874908,147.078781 160.964310,152.216904 
	C161.690796,193.964188 162.317596,235.713196 162.998917,277.461273 
	C163.650345,317.377686 164.440140,357.292175 164.966431,397.210175 
	C165.451355,433.989136 165.568649,470.773041 166.088272,507.551392 
	C166.185989,514.467590 167.415359,521.367737 168.122528,528.275330 
z"/>
<path fill="#06FDB3" opacity="1.000000" stroke="none" 
	d="
M922.121826,724.326111 
	C912.977295,714.035156 904.021606,703.543579 895.255859,692.895630 
	C877.162354,670.917236 859.170044,648.855530 841.119873,626.092285 
	C841.402222,623.058289 842.001038,620.752686 841.944214,618.463257 
	C841.758972,610.992432 841.173401,603.530518 841.029175,596.059631 
	C840.303467,558.469421 839.632690,520.877991 839.012146,483.285858 
	C838.303589,440.364105 837.707153,397.440521 836.988892,354.518951 
	C836.382202,318.259338 835.530701,282.003357 835.045471,245.742310 
	C834.546448,208.457031 834.359924,171.167557 834.036682,133.879929 
	C835.247009,134.647034 836.643860,135.225220 837.640320,136.208939 
	C861.061646,159.331375 882.430969,184.136307 901.177002,211.279922 
	C915.896423,232.593124 928.810791,254.870789 939.967041,278.172455 
	C953.982788,307.446503 964.907654,337.930450 972.556213,369.439789 
	C976.687500,386.459473 978.939514,403.936676 982.003296,421.213867 
	C987.325989,451.228851 986.673950,481.576630 985.682739,511.781891 
	C985.075012,530.301636 981.663452,548.763733 978.975891,567.173584 
	C973.679016,603.457275 962.687683,638.205017 948.386169,671.808105 
	C940.782288,689.674438 931.126404,706.667480 922.121826,724.326111 
z"/>
<path fill="#07EDB9" opacity="1.000000" stroke="none" 
	d="
M813.792664,593.097046 
	C801.900635,578.699219 790.008606,564.301392 778.096924,549.167114 
	C778.384827,545.800232 779.008240,543.162903 778.951172,540.540344 
	C778.367920,513.772217 777.532288,487.009125 777.043213,460.239563 
	C776.252930,416.980255 775.566162,373.718475 775.039001,330.455231 
	C774.720825,304.342621 774.965820,278.223053 774.629517,252.110794 
	C774.306580,227.033325 773.492981,201.962540 773.032104,176.886292 
	C772.839233,166.392944 773.046875,155.892792 772.977783,145.396347 
	C772.948425,140.945267 772.670837,136.495972 772.514587,132.045578 
	C772.013123,117.761894 771.453796,103.479553 771.114502,89.192017 
	C771.081299,87.795486 772.412415,86.366554 773.110229,84.952644 
	C781.140625,90.533432 789.230530,96.031326 797.174988,101.731850 
	C800.858337,104.374840 804.258667,107.412270 807.753906,110.967682 
	C807.513062,114.797302 807.083801,117.934853 807.150269,121.061852 
	C807.248535,125.682632 807.881714,130.292389 807.970947,134.912964 
	C808.687195,171.977646 809.386658,209.042847 809.978943,246.109680 
	C810.709167,291.810791 811.322571,337.513702 812.003967,383.215607 
	C812.311584,403.847809 812.667847,424.479279 812.990601,445.111267 
	C813.334167,467.075989 813.762634,489.039978 813.968262,511.006042 
	C814.127380,528.000183 813.968994,544.997131 814.032532,561.992554 
	C814.042419,564.635437 814.738953,567.282532 814.678711,569.917664 
	C814.502136,577.646790 814.104065,585.370972 813.792664,593.097046 
z"/>
<path fill="#08E3BD" opacity="1.000000" stroke="none" 
	d="
M772.967041,84.632782 
	C772.412415,86.366554 771.081299,87.795486 771.114502,89.192017 
	C771.453796,103.479553 772.013123,117.761894 772.514587,132.045578 
	C772.670837,136.495972 772.948425,140.945267 772.977783,145.396347 
	C773.046875,155.892792 772.839233,166.392944 773.032104,176.886292 
	C773.492981,201.962540 774.306580,227.033325 774.629517,252.110794 
	C774.965820,278.223053 774.720825,304.342621 775.039001,330.455231 
	C775.566162,373.718475 776.252930,416.980255 777.043213,460.239563 
	C777.532288,487.009125 778.367920,513.772217 778.951172,540.540344 
	C779.008240,543.162903 778.384827,545.800232 777.983643,548.858704 
	C766.673096,535.705811 755.456177,522.124878 744.160278,507.806213 
	C744.387573,504.108521 745.026733,501.139526 744.946533,498.190155 
	C744.387817,477.642700 743.547302,457.102448 743.070190,436.553528 
	C742.788696,424.430389 743.007080,412.295685 743.000610,400.166168 
	C748.602295,400.166168 754.204041,400.166168 761.050415,400.166168 
	C754.265076,391.871368 748.166504,384.416016 742.126770,376.246948 
	C742.457092,373.240265 743.015076,370.939819 742.955627,368.655487 
	C742.363281,345.907562 741.488953,323.165833 741.044922,300.415527 
	C740.347534,264.686340 741.185486,228.970413 739.358765,193.208511 
	C737.434265,155.532806 738.328003,117.712891 738.006775,79.955841 
	C737.959167,74.360191 738.001770,68.763763 738.002625,63.167694 
	C749.609680,70.216095 761.216736,77.264496 772.967041,84.632782 
z"/>
<path fill="#07F6B5" opacity="1.000000" stroke="none" 
	d="
M813.911255,593.417419 
	C814.104065,585.370972 814.502136,577.646790 814.678711,569.917664 
	C814.738953,567.282532 814.042419,564.635437 814.032532,561.992554 
	C813.968994,544.997131 814.127380,528.000183 813.968262,511.006042 
	C813.762634,489.039978 813.334167,467.075989 812.990601,445.111267 
	C812.667847,424.479279 812.311584,403.847809 812.003967,383.215607 
	C811.322571,337.513702 810.709167,291.810791 809.978943,246.109680 
	C809.386658,209.042847 808.687195,171.977646 807.970947,134.912964 
	C807.881714,130.292389 807.248535,125.682632 807.150269,121.061852 
	C807.083801,117.934853 807.513062,114.797302 807.884399,111.278290 
	C816.626831,118.350563 825.205444,125.809021 833.910400,133.573700 
	C834.359924,171.167557 834.546448,208.457031 835.045471,245.742310 
	C835.530701,282.003357 836.382202,318.259338 836.988892,354.518951 
	C837.707153,397.440521 838.303589,440.364105 839.012146,483.285858 
	C839.632690,520.877991 840.303467,558.469421 841.029175,596.059631 
	C841.173401,603.530518 841.758972,610.992432 841.944214,618.463257 
	C842.001038,620.752686 841.402222,623.058289 841.013428,625.778992 
	C831.958801,615.380249 822.994263,604.559021 813.911255,593.417419 
z"/>
<path fill="#1139FB" opacity="1.000000" stroke="none" 
	d="
M168.416229,528.091431 
	C167.415359,521.367737 166.185989,514.467590 166.088272,507.551392 
	C165.568649,470.773041 165.451355,433.989136 164.966431,397.210175 
	C164.440140,357.292175 163.650345,317.377686 162.998917,277.461273 
	C162.317596,235.713196 161.690796,193.964188 160.964310,152.216904 
	C160.874908,147.078781 160.318298,141.948807 159.969498,136.347382 
	C169.750702,127.313461 179.540588,118.747231 189.803177,110.416046 
	C191.183762,126.710251 192.487411,142.759048 192.908966,158.830963 
	C193.580521,184.435028 193.613312,210.055328 194.018188,235.667145 
	C194.230957,249.126801 194.733597,262.581696 194.977707,276.041046 
	C195.686340,315.111053 196.387726,354.181396 196.980820,393.253265 
	C197.412552,421.695404 197.651596,450.140411 198.040649,478.583313 
	C198.065079,480.369232 198.646957,482.147552 198.969482,483.929413 
	C188.882950,498.588806 178.796432,513.248169 168.416229,528.091431 
z"/>
<path fill="#0F6EE7" opacity="1.000000" stroke="none" 
	d="
M375.909363,373.196991 
	C370.671844,365.994720 365.338989,358.859344 360.223145,351.571686 
	C354.899017,343.987305 349.784454,336.255798 344.777069,328.094543 
	C345.316223,326.365967 345.967834,325.126953 345.949951,323.897675 
	C345.698456,306.617096 345.361694,289.337769 345.033569,272.058350 
	C344.695923,254.279633 344.318329,236.501617 344.007019,218.722443 
	C343.646210,198.114883 343.333221,177.506500 343.009216,156.898331 
	C342.666840,135.125336 342.253601,113.353027 342.028778,91.578796 
	C341.877563,76.934326 342.114075,62.285751 341.949799,47.641563 
	C341.872406,40.741810 341.260559,33.848045 340.890869,26.951565 
	C350.680939,23.729393 360.471008,20.507221 370.664673,17.635035 
	C371.378906,20.952280 371.920868,23.916193 371.963867,26.887327 
	C372.356567,54.017570 372.621643,81.149643 373.007996,108.279991 
	C373.268585,126.580803 373.678314,144.879440 373.996307,163.179489 
	C374.343231,183.145264 374.667786,203.111435 374.990143,223.077621 
	C375.334015,244.376572 375.762634,265.674805 375.968262,286.975128 
	C376.127472,303.469940 375.976746,319.967560 376.026794,336.463745 
	C376.033813,338.778320 376.600403,341.094788 376.565704,343.405243 
	C376.416595,353.336884 376.139709,363.266571 375.909363,373.196991 
z"/>
<path fill="#0E76E5" opacity="1.000000" stroke="none" 
	d="
M375.923401,373.542969 
	C376.139709,363.266571 376.416595,353.336884 376.565704,343.405243 
	C376.600403,341.094788 376.033813,338.778320 376.026794,336.463745 
	C375.976746,319.967560 376.127472,303.469940 375.968262,286.975128 
	C375.762634,265.674805 375.334015,244.376572 374.990143,223.077621 
	C374.667786,203.111435 374.343231,183.145264 373.996307,163.179489 
	C373.678314,144.879440 373.268585,126.580803 373.007996,108.279991 
	C372.621643,81.149643 372.356567,54.017570 371.963867,26.887327 
	C371.920868,23.916193 371.378906,20.952280 371.037354,17.575745 
	C379.407349,15.128930 387.808319,13.091390 396.694336,11.508533 
	C397.450989,13.596812 397.927185,15.225816 397.964020,16.864681 
	C398.673218,48.450130 399.411407,80.035301 399.974213,111.623550 
	C400.430603,137.241241 400.660797,162.862961 400.996399,188.482834 
	C401.327637,213.769684 401.667572,239.056427 401.999329,264.343262 
	C402.337646,290.129700 402.616119,315.917053 403.030670,341.702240 
	C403.217712,353.333923 403.625366,364.962952 404.048950,376.588959 
	C404.119965,378.538025 404.783997,380.465515 405.174011,382.402954 
	C401.200714,387.319366 397.227417,392.235748 392.788849,397.727814 
	C387.005432,389.546295 381.471436,381.717621 375.923401,373.542969 
z"/>
<path fill="#08D9C0" opacity="1.000000" stroke="none" 
	d="
M737.682251,63.012329 
	C738.001770,68.763763 737.959167,74.360191 738.006775,79.955841 
	C738.328003,117.712891 737.434265,155.532806 739.358765,193.208511 
	C741.185486,228.970413 740.347534,264.686340 741.044922,300.415527 
	C741.488953,323.165833 742.363281,345.907562 742.955627,368.655487 
	C743.015076,370.939819 742.457092,373.240265 742.011169,375.939392 
	C731.247498,363.624420 720.658264,350.903290 710.006470,337.425171 
	C710.295959,333.037140 710.981262,329.401459 710.930908,325.776031 
	C710.824829,318.136932 710.191772,310.506256 710.027771,302.866638 
	C709.613464,283.567657 709.332336,264.265808 709.010315,244.964874 
	C708.666138,224.331116 708.358765,203.696732 707.992920,183.063354 
	C707.697937,166.428192 707.255432,149.795303 707.028870,133.159363 
	C706.637146,104.400581 706.362061,75.640213 706.037964,46.880501 
	C716.479248,52.205986 726.920532,57.531475 737.682251,63.012329 
z"/>
<path fill="#1048F6" opacity="1.000000" stroke="none" 
	d="
M248.333694,413.138855 
	C240.163620,425.004517 231.993561,436.870178 223.169296,448.761169 
	C222.021393,447.800629 221.167450,446.841217 221.092819,445.824615 
	C220.631210,439.536133 220.198166,433.238708 220.029312,426.936920 
	C219.610840,411.318359 219.294479,395.696686 219.018265,380.074829 
	C218.321655,340.675293 217.640244,301.275482 217.010941,261.874847 
	C216.620529,237.430725 216.312378,212.985168 216.010803,188.539734 
	C215.649673,159.266678 215.334351,129.993042 215.001556,100.719643 
	C214.986420,99.387840 215.125412,98.039116 214.958481,96.728081 
	C214.751099,95.099335 214.299698,93.501663 213.953690,91.890579 
	C221.468735,86.627876 228.981873,81.362473 236.501236,76.105965 
	C237.422256,75.462105 238.376678,74.866013 239.690643,74.616455 
	C240.371735,76.786079 240.906372,78.581551 240.949814,80.388817 
	C241.669556,110.325638 242.390198,140.262726 242.966293,170.202530 
	C243.173523,180.971771 242.881485,191.749939 243.027115,202.521194 
	C243.254303,219.324753 243.665298,236.125793 243.989334,252.928085 
	C244.331680,270.679016 244.717728,288.429321 244.986755,306.181366 
	C245.372711,331.648560 245.614944,357.118042 246.035004,382.584595 
	C246.180267,391.390656 246.622421,400.193481 247.059830,408.991302 
	C247.129440,410.391479 247.891678,411.757202 248.333694,413.138855 
z"/>
<path fill="#0E7EE2" opacity="1.000000" stroke="none" 
	d="
M405.472717,382.229309 
	C404.783997,380.465515 404.119965,378.538025 404.048950,376.588959 
	C403.625366,364.962952 403.217712,353.333923 403.030670,341.702240 
	C402.616119,315.917053 402.337646,290.129700 401.999329,264.343262 
	C401.667572,239.056427 401.327637,213.769684 400.996399,188.482834 
	C400.660797,162.862961 400.430603,137.241241 399.974213,111.623550 
	C399.411407,80.035301 398.673218,48.450130 397.964020,16.864681 
	C397.927185,15.225816 397.450989,13.596812 397.090271,11.565758 
	C404.717682,9.788153 412.434143,8.408008 420.665222,7.495072 
	C421.451202,9.595261 421.923279,11.223372 421.963013,12.861968 
	C422.350037,28.814146 422.704865,44.767361 422.989990,60.721687 
	C423.361420,81.502586 423.634827,102.285233 424.000153,123.066254 
	C424.295197,139.852859 424.714172,156.637329 424.987854,173.424225 
	C425.367432,196.702393 425.664429,219.981934 425.993042,243.260941 
	C426.331024,267.205811 426.708954,291.150238 426.979736,315.095886 
	C427.100220,325.749817 426.878235,336.408905 427.108002,347.059235 
	C427.152161,349.106018 428.578033,351.122986 429.366486,353.153687 
	C421.501465,362.787659 413.636475,372.421661 405.472717,382.229309 
z"/>
<path fill="#1141F8" opacity="1.000000" stroke="none" 
	d="
M213.600708,91.944542 
	C214.299698,93.501663 214.751099,95.099335 214.958481,96.728081 
	C215.125412,98.039116 214.986420,99.387840 215.001556,100.719643 
	C215.334351,129.993042 215.649673,159.266678 216.010803,188.539734 
	C216.312378,212.985168 216.620529,237.430725 217.010941,261.874847 
	C217.640244,301.275482 218.321655,340.675293 219.018265,380.074829 
	C219.294479,395.696686 219.610840,411.318359 220.029312,426.936920 
	C220.198166,433.238708 220.631210,439.536133 221.092819,445.824615 
	C221.167450,446.841217 222.021393,447.800629 222.891998,448.942963 
	C215.359772,460.592194 207.450638,472.084961 199.255493,483.753571 
	C198.646957,482.147552 198.065079,480.369232 198.040649,478.583313 
	C197.651596,450.140411 197.412552,421.695404 196.980820,393.253265 
	C196.387726,354.181396 195.686340,315.111053 194.977707,276.041046 
	C194.733597,262.581696 194.230957,249.126801 194.018188,235.667145 
	C193.613312,210.055328 193.580521,184.435028 192.908966,158.830963 
	C192.487411,142.759048 191.183762,126.710251 190.114319,110.271240 
	C195.352203,105.583069 200.719727,101.233841 206.166290,96.985954 
	C208.440201,95.212486 210.882156,93.654480 213.600708,91.944542 
z"/>
<path fill="#0D85DF" opacity="1.000000" stroke="none" 
	d="
M429.647186,352.987091 
	C428.578033,351.122986 427.152161,349.106018 427.108002,347.059235 
	C426.878235,336.408905 427.100220,325.749817 426.979736,315.095886 
	C426.708954,291.150238 426.331024,267.205811 425.993042,243.260941 
	C425.664429,219.981934 425.367432,196.702393 424.987854,173.424225 
	C424.714172,156.637329 424.295197,139.852859 424.000153,123.066254 
	C423.634827,102.285233 423.361420,81.502586 422.989990,60.721687 
	C422.704865,44.767361 422.350037,28.814146 421.963013,12.861968 
	C421.923279,11.223372 421.451202,9.595261 421.090942,7.564704 
	C427.000793,6.111746 432.995087,5.030326 439.000397,4.013919 
	C441.376007,3.611848 443.776123,3.354402 446.583496,3.098855 
	C447.337616,20.455292 447.681763,37.743824 448.006653,55.032719 
	C448.347382,73.166679 448.693298,91.300591 448.993958,109.435234 
	C449.355438,131.235001 449.664368,153.035629 450.009308,174.835678 
	C450.330536,195.136292 450.591217,215.438278 451.022919,235.736588 
	C451.419037,254.359909 452.025940,272.978668 452.503510,291.600372 
	C452.716125,299.890259 452.790710,308.183868 453.038452,316.472504 
	C453.097412,318.445190 453.599640,320.404602 453.988220,322.793579 
	C446.028259,333.084869 437.978088,342.952667 429.647186,352.987091 
z"/>
<path fill="#0F57F0" opacity="1.000000" stroke="none" 
	d="
M298.114227,341.041809 
	C293.532196,347.942047 288.998474,354.875031 284.352722,361.732086 
	C280.681458,367.150818 276.872498,372.476227 272.509949,377.837097 
	C271.265717,376.210602 270.127319,374.603302 270.084961,372.967651 
	C269.624573,355.191895 269.231537,337.412689 269.060303,319.632111 
	C269.004486,313.840179 270.064209,308.028961 269.888855,302.248535 
	C269.511719,289.816437 268.426910,277.405609 268.063782,264.973419 
	C267.515472,246.202011 267.223602,227.420807 267.061829,208.641693 
	C267.006165,202.183609 268.082428,195.708725 267.917542,189.260025 
	C267.514587,173.501190 266.503448,157.758133 266.080200,141.999512 
	C265.544678,122.062180 265.319733,102.116165 265.022308,82.172974 
	C264.911530,74.744896 264.974335,67.314217 264.958008,59.884731 
	C272.900238,55.832767 280.842499,51.780800 289.376343,47.857147 
	C290.642944,49.975754 291.824860,51.944710 291.909698,53.959862 
	C292.413330,65.919540 292.763794,77.888115 292.979248,89.857056 
	C293.694855,129.602432 294.404724,169.348206 294.974426,209.095856 
	C295.424957,240.530655 295.609863,271.969208 296.029846,303.404510 
	C296.180847,314.707275 296.642609,326.006653 297.053955,337.304230 
	C297.099701,338.561279 297.746277,339.796478 298.114227,341.041809 
z"/>
<path fill="#09D0C3" opacity="1.000000" stroke="none" 
	d="
M705.871704,46.565914 
	C706.362061,75.640213 706.637146,104.400581 707.028870,133.159363 
	C707.255432,149.795303 707.697937,166.428192 707.992920,183.063354 
	C708.358765,203.696732 708.666138,224.331116 709.010315,244.964874 
	C709.332336,264.265808 709.613464,283.567657 710.027771,302.866638 
	C710.191772,310.506256 710.824829,318.136932 710.930908,325.776031 
	C710.981262,329.401459 710.295959,333.037140 709.890747,337.129272 
	C700.253418,326.096527 690.669373,314.602631 680.999634,302.306152 
	C680.609680,287.544067 680.252991,273.585541 680.011108,259.624969 
	C679.317261,219.582901 678.573364,179.541290 678.033386,139.497025 
	C677.559937,104.388268 677.335999,69.276138 677.001831,34.165489 
	C686.569702,38.194096 696.137512,42.222710 705.871704,46.565914 
z"/>
<path fill="#104FF3" opacity="1.000000" stroke="none" 
	d="
M264.597046,59.941071 
	C264.974335,67.314217 264.911530,74.744896 265.022308,82.172974 
	C265.319733,102.116165 265.544678,122.062180 266.080200,141.999512 
	C266.503448,157.758133 267.514587,173.501190 267.917542,189.260025 
	C268.082428,195.708725 267.006165,202.183609 267.061829,208.641693 
	C267.223602,227.420807 267.515472,246.202011 268.063782,264.973419 
	C268.426910,277.405609 269.511719,289.816437 269.888855,302.248535 
	C270.064209,308.028961 269.004486,313.840179 269.060303,319.632111 
	C269.231537,337.412689 269.624573,355.191895 270.084961,372.967651 
	C270.127319,374.603302 271.265717,376.210602 272.267639,378.051392 
	C264.721161,389.768860 256.802277,401.265991 248.608551,412.950989 
	C247.891678,411.757202 247.129440,410.391479 247.059830,408.991302 
	C246.622421,400.193481 246.180267,391.390656 246.035004,382.584595 
	C245.614944,357.118042 245.372711,331.648560 244.986755,306.181366 
	C244.717728,288.429321 244.331680,270.679016 243.989334,252.928085 
	C243.665298,236.125793 243.254303,219.324753 243.027115,202.521194 
	C242.881485,191.749939 243.173523,180.971771 242.966293,170.202530 
	C242.390198,140.262726 241.669556,110.325638 240.949814,80.388817 
	C240.906372,78.581551 240.371735,76.786079 240.033157,74.575882 
	C248.079147,69.443573 256.157623,64.720497 264.597046,59.941071 
z"/>
<path fill="#0F66EA" opacity="1.000000" stroke="none" 
	d="
M340.500122,26.972670 
	C341.260559,33.848045 341.872406,40.741810 341.949799,47.641563 
	C342.114075,62.285751 341.877563,76.934326 342.028778,91.578796 
	C342.253601,113.353027 342.666840,135.125336 343.009216,156.898331 
	C343.333221,177.506500 343.646210,198.114883 344.007019,218.722443 
	C344.318329,236.501617 344.695923,254.279633 345.033569,272.058350 
	C345.361694,289.337769 345.698456,306.617096 345.949951,323.897675 
	C345.967834,325.126953 345.316223,326.365967 344.655334,327.794373 
	C338.360474,319.671265 332.386169,311.354218 325.995972,302.458191 
	C324.740814,304.071594 323.690399,305.421753 322.188416,306.571930 
	C321.161041,299.612762 320.256866,292.862610 320.072144,286.092773 
	C319.555542,267.160156 319.326080,248.219604 319.002869,229.281845 
	C318.659698,209.179855 318.375519,189.076813 317.996155,168.975525 
	C317.723511,154.528992 317.228058,140.086166 317.023773,125.638962 
	C316.600739,95.721687 316.305542,65.802605 315.957764,35.884277 
	C324.008331,32.920780 332.058838,29.957277 340.500122,26.972670 
z"/>
<path fill="#09C8C7" opacity="1.000000" stroke="none" 
	d="
M676.660767,33.999878 
	C677.335999,69.276138 677.559937,104.388268 678.033386,139.497025 
	C678.573364,179.541290 679.317261,219.582901 680.011108,259.624969 
	C680.252991,273.585541 680.609680,287.544067 680.883545,302.007263 
	C671.209656,290.943970 661.566162,279.376892 652.068909,267.166382 
	C652.476624,264.739502 653.010315,262.946747 652.950134,261.174194 
	C652.747437,255.201340 652.082642,249.237305 652.043091,243.266937 
	C651.851440,214.325470 651.974487,185.381104 651.638855,156.441788 
	C651.465454,141.492783 650.372620,126.556282 650.058777,111.606491 
	C649.779053,98.283562 650.124023,84.948608 649.960693,71.621803 
	C649.830322,60.985836 649.199829,50.355690 649.091431,39.719898 
	C649.041016,34.778965 649.703247,29.830769 650.042480,24.885864 
	C658.801575,27.868664 667.560669,30.851461 676.660767,33.999878 
z"/>
<path fill="#0F5FED" opacity="1.000000" stroke="none" 
	d="
M315.582947,35.942940 
	C316.305542,65.802605 316.600739,95.721687 317.023773,125.638962 
	C317.228058,140.086166 317.723511,154.528992 317.996155,168.975525 
	C318.375519,189.076813 318.659698,209.179855 319.002869,229.281845 
	C319.326080,248.219604 319.555542,267.160156 320.072144,286.092773 
	C320.256866,292.862610 321.161041,299.612762 321.904877,306.765167 
	C314.298309,318.378479 306.523682,329.598511 298.431641,340.930176 
	C297.746277,339.796478 297.099701,338.561279 297.053955,337.304230 
	C296.642609,326.006653 296.180847,314.707275 296.029846,303.404510 
	C295.609863,271.969208 295.424957,240.530655 294.974426,209.095856 
	C294.404724,169.348206 293.694855,129.602432 292.979248,89.857056 
	C292.763794,77.888115 292.413330,65.919540 291.909698,53.959862 
	C291.824860,51.944710 290.642944,49.975754 289.663605,47.641998 
	C297.975555,43.532902 306.591827,39.767258 315.582947,35.942940 
z"/>
<path fill="#0E63EB" opacity="1.000000" stroke="none" 
	d="
M315.998413,674.166626 
	C324.355255,674.119995 332.712128,674.073303 341.533569,674.539062 
	C342.664703,692.294128 343.573608,709.531616 343.940918,726.780640 
	C344.492889,752.699585 344.614227,778.627380 345.020325,804.549866 
	C345.230957,817.997803 345.797607,831.440735 345.963074,844.888855 
	C346.370026,877.965088 346.637787,911.042969 346.961517,944.120178 
	C338.418182,941.339661 329.874847,938.559143 321.151550,934.992676 
	C320.648590,929.577942 320.102356,924.952209 320.038849,920.319885 
	C319.633423,890.735535 319.384918,861.148987 318.979187,831.564636 
	C318.767365,816.119568 318.306274,800.678040 318.017639,785.233887 
	C317.325714,748.211792 316.669189,711.189087 315.998413,674.166626 
z"/>
<path fill="#0F6BE9" opacity="1.000000" stroke="none" 
	d="
M347.157898,944.439087 
	C346.637787,911.042969 346.370026,877.965088 345.963074,844.888855 
	C345.797607,831.440735 345.230957,817.997803 345.020325,804.549866 
	C344.614227,778.627380 344.492889,752.699585 343.940918,726.780640 
	C343.573608,709.531616 342.664703,692.294128 341.997375,674.608887 
	C350.021057,674.119812 358.045532,674.073364 366.534393,674.555054 
	C367.332520,685.217041 367.807922,695.348694 367.972198,705.485352 
	C368.387573,731.113037 368.617126,756.743713 369.011627,782.371765 
	C369.254211,798.132446 369.781403,813.889160 369.973236,829.650208 
	C370.386566,863.608948 370.676605,897.569214 370.991028,931.529114 
	C371.053711,938.296814 370.999939,945.065552 370.999878,951.833862 
	C363.118011,949.475220 355.236145,947.116577 347.157898,944.439087 
z"/>
<path fill="#08D7C1" opacity="1.000000" stroke="none" 
	d="
M711.000244,728.167358 
	C722.357300,728.120972 733.714294,728.074585 745.535645,728.555237 
	C746.330078,745.681519 746.691467,762.280273 746.982422,778.880188 
	C747.351562,799.944275 747.653687,821.009583 748.002930,842.073975 
	C748.322144,861.331970 748.665466,880.589600 748.998169,899.847412 
	C738.507263,905.595886 728.021790,911.354370 717.514954,917.073669 
	C716.683411,917.526245 715.703247,917.705811 714.406738,917.589844 
	C713.681824,903.872803 713.324768,890.578552 713.007263,877.283386 
	C712.654785,862.524963 712.263672,847.766968 712.023621,833.006531 
	C711.625916,808.553894 711.293579,784.099976 711.019653,759.645569 
	C710.902161,749.154114 711.000183,738.660156 711.000244,728.167358 
z"/>
<path fill="#0D8DDC" opacity="1.000000" stroke="none" 
	d="
M458.998505,728.166992 
	C467.355743,728.120605 475.712982,728.074280 484.534729,728.555298 
	C485.329773,743.700439 485.697754,758.317383 485.981506,772.936035 
	C486.355621,792.213501 486.675781,811.492004 486.996704,830.770447 
	C487.342102,851.520508 487.660736,872.270996 487.992523,893.021301 
	C488.327423,913.963928 488.673920,934.906494 488.991333,955.849365 
	C489.051849,959.843140 489.000519,963.838623 489.000763,967.833313 
	C480.950043,967.547363 472.899353,967.261353 464.335327,966.507202 
	C463.548157,963.905212 463.072235,961.775513 463.030579,959.637207 
	C462.324188,923.378723 461.640869,887.119629 461.015625,850.859619 
	C460.310394,809.962646 459.668152,769.064514 458.998505,728.166992 
z"/>
<path fill="#08E3BD" opacity="1.000000" stroke="none" 
	d="
M749.344971,899.819580 
	C748.665466,880.589600 748.322144,861.331970 748.002930,842.073975 
	C747.653687,821.009583 747.351562,799.944275 746.982422,778.880188 
	C746.691467,762.280273 746.330078,745.681519 745.999817,728.624329 
	C757.690369,728.120239 769.381165,728.074097 781.562622,728.476501 
	C782.368958,734.667847 782.878296,740.407654 782.966797,746.153931 
	C783.373657,772.550354 783.613831,798.949280 784.011841,825.345886 
	C784.267090,842.270874 784.692749,859.193359 785.041992,876.116943 
	C773.258606,884.008545 761.475220,891.900146 749.344971,899.819580 
z"/>
<path fill="#0D85DF" opacity="1.000000" stroke="none" 
	d="
M458.534485,728.097595 
	C459.668152,769.064514 460.310394,809.962646 461.015625,850.859619 
	C461.640869,887.119629 462.324188,923.378723 463.030579,959.637207 
	C463.072235,961.775513 463.548157,963.905212 463.911560,966.436523 
	C455.954987,966.213379 447.908783,965.592651 439.431427,964.444824 
	C438.667480,955.294922 438.184357,946.674927 438.027649,938.049011 
	C437.303223,898.175903 436.606415,858.301941 436.024139,818.426514 
	C435.584808,788.341492 435.333649,758.253723 434.998749,728.167175 
	C442.689331,728.120850 450.379883,728.074524 458.534485,728.097595 
z"/>
<path fill="#0AC1C9" opacity="1.000000" stroke="none" 
	d="
M649.852905,24.560326 
	C649.703247,29.830769 649.041016,34.778965 649.091431,39.719898 
	C649.199829,50.355690 649.830322,60.985836 649.960693,71.621803 
	C650.124023,84.948608 649.779053,98.283562 650.058777,111.606491 
	C650.372620,126.556282 651.465454,141.492783 651.638855,156.441788 
	C651.974487,185.381104 651.851440,214.325470 652.043091,243.266937 
	C652.082642,249.237305 652.747437,255.201340 652.950134,261.174194 
	C653.010315,262.946747 652.476624,264.739502 651.931519,266.851227 
	C643.443359,257.367279 635.238770,247.555099 627.167664,237.095306 
	C627.534058,234.656876 628.008423,232.859314 627.958923,231.076324 
	C627.719666,222.469681 627.195923,213.869675 627.033752,205.262390 
	C626.307373,166.707047 625.520630,128.151825 625.054504,89.592957 
	C624.762695,65.454163 625.001709,41.308952 625.002502,17.166622 
	C625.171753,17.128031 625.341064,17.089437 625.926758,17.268278 
	C626.576050,17.686029 626.834900,17.843849 627.119690,17.959175 
	C634.634277,20.051046 642.148804,22.142916 649.852905,24.560326 
z"/>
<path fill="#0F56F1" opacity="1.000000" stroke="none" 
	d="
M273.998352,674.166992 
	C281.355499,674.119934 288.712677,674.072876 296.534210,674.554321 
	C297.329193,691.354614 297.631378,707.627014 297.999512,723.897888 
	C298.288666,736.677429 298.736145,749.453796 298.978882,762.234131 
	C299.688599,799.600586 300.400360,836.967285 300.964813,874.336121 
	C301.180847,888.638000 301.057343,902.946289 300.952911,917.250671 
	C300.931305,920.208740 300.307861,923.162354 299.961792,926.118042 
	C292.736633,922.998047 285.511505,919.878113 278.127258,915.967529 
	C277.650269,895.246460 277.343323,875.315674 277.011505,855.385376 
	C276.688019,835.953552 276.324066,816.522400 276.012299,797.090393 
	C275.938416,792.485291 276.083221,787.876160 275.986694,783.271851 
	C275.697906,769.494751 275.266785,755.720337 275.024536,741.942505 
	C274.627258,719.351685 274.334930,696.758911 273.998352,674.166992 
z"/>
<path fill="#0E77E4" opacity="1.000000" stroke="none" 
	d="
M387.998535,728.166931 
	C395.688965,728.120361 403.379425,728.073792 411.534363,728.554932 
	C412.665894,760.327881 413.391113,791.572083 413.980652,822.818787 
	C414.410797,845.617249 414.668213,868.419128 414.991547,891.219543 
	C415.321960,914.519714 415.638794,937.819946 415.961548,961.120178 
	C407.767059,959.669678 399.572540,958.219177 391.320374,956.076538 
	C391.175201,951.947449 391.020660,948.510803 391.012421,945.073730 
	C390.983490,932.988037 391.125214,920.900818 390.979431,908.816833 
	C390.746979,889.546631 390.351471,870.278198 389.995697,851.009583 
	C389.687561,834.321289 389.285980,817.634521 389.020721,800.945557 
	C388.635223,776.686707 388.335083,752.426514 387.998535,728.166931 
z"/>
<path fill="#0F71E6" opacity="1.000000" stroke="none" 
	d="
M387.535339,728.097046 
	C388.335083,752.426514 388.635223,776.686707 389.020721,800.945557 
	C389.285980,817.634521 389.687561,834.321289 389.995697,851.009583 
	C390.351471,870.278198 390.746979,889.546631 390.979431,908.816833 
	C391.125214,920.900818 390.983490,932.988037 391.012421,945.073730 
	C391.020660,948.510803 391.175201,951.947449 391.106506,955.745117 
	C384.567932,954.728821 378.185547,953.351746 371.401520,951.904236 
	C370.999939,945.065552 371.053711,938.296814 370.991028,931.529114 
	C370.676605,897.569214 370.386566,863.608948 369.973236,829.650208 
	C369.781403,813.889160 369.254211,798.132446 369.011627,782.371765 
	C368.617126,756.743713 368.387573,731.113037 367.972198,705.485352 
	C367.807922,695.348694 367.332520,685.217041 366.998230,674.625244 
	C373.022095,674.120422 379.046478,674.073547 385.534882,674.554749 
	C385.999786,683.644775 385.913727,692.208374 386.070801,700.767517 
	C386.104553,702.607117 387.017120,704.430542 387.524841,706.261414 
	C381.930115,713.117676 376.335388,719.973877 369.763855,728.027161 
	C376.367249,728.027161 381.719727,728.027161 387.535339,728.097046 
z"/>
<path fill="#0E7EE2" opacity="1.000000" stroke="none" 
	d="
M416.190460,961.457886 
	C415.638794,937.819946 415.321960,914.519714 414.991547,891.219543 
	C414.668213,868.419128 414.410797,845.617249 413.980652,822.818787 
	C413.391113,791.572083 412.665894,760.327881 411.998230,728.624634 
	C419.355316,728.120361 426.713043,728.074097 434.534729,728.097473 
	C435.333649,758.253723 435.584808,788.341492 436.024139,818.426514 
	C436.606415,858.301941 437.303223,898.175903 438.027649,938.049011 
	C438.184357,946.674927 438.667480,955.294922 439.000610,964.375488 
	C431.473755,963.820740 423.946564,962.808167 416.190460,961.457886 
z"/>
<path fill="#0BA6D3" opacity="1.000000" stroke="none" 
	d="
M547.999390,728.166992 
	C555.356201,728.120972 562.713013,728.074951 570.455505,728.464661 
	C570.652588,729.875793 570.275391,730.856689 570.303406,731.825867 
	C570.840515,750.429016 571.538574,769.028198 571.969360,787.633606 
	C572.435303,807.754883 572.653137,827.881958 572.993347,848.006226 
	C573.319458,867.298096 573.792908,886.588440 573.963318,905.881592 
	C574.130920,924.868164 573.999207,943.857422 573.998779,962.845459 
	C566.609436,963.878357 559.220154,964.911194 551.425354,965.473206 
	C551.013306,956.904297 551.097351,948.804871 550.981995,940.708313 
	C550.707214,921.421265 550.318298,902.135803 550.012817,882.849182 
	C549.654541,860.232910 549.299316,837.616577 549.009216,814.999390 
	C548.637939,786.055725 548.332947,757.111145 547.999390,728.166992 
z"/>
<path fill="#0AB4CE" opacity="1.000000" stroke="none" 
	d="
M593.999634,728.166992 
	C601.356628,728.120972 608.713623,728.075012 616.535156,728.556091 
	C617.329895,743.691895 617.728577,758.299500 617.977356,772.909668 
	C618.684326,814.419617 619.418823,855.929504 619.959534,897.441833 
	C620.199951,915.902832 620.001099,934.369690 620.001587,952.833862 
	C612.942627,954.546631 605.883606,956.259399 598.323120,957.505066 
	C597.549683,955.404541 597.073853,953.775635 597.037231,952.136963 
	C596.651245,934.846558 596.310364,917.555054 596.006531,900.263000 
	C595.647766,879.842346 595.313293,859.421143 595.012939,838.999512 
	C594.650757,814.380310 594.281982,789.760864 594.022583,765.140442 
	C593.892822,752.817200 593.999756,740.491516 593.999634,728.166992 
z"/>
<path fill="#0BADD1" opacity="1.000000" stroke="none" 
	d="
M593.535522,728.097778 
	C593.999756,740.491516 593.892822,752.817200 594.022583,765.140442 
	C594.281982,789.760864 594.650757,814.380310 595.012939,838.999512 
	C595.313293,859.421143 595.647766,879.842346 596.006531,900.263000 
	C596.310364,917.555054 596.651245,934.846558 597.037231,952.136963 
	C597.073853,953.775635 597.549683,955.404541 597.911011,957.435547 
	C591.190674,959.222168 584.380127,960.606567 577.572632,962.005737 
	C576.636780,962.198120 575.716125,962.464478 574.393616,962.770996 
	C573.999207,943.857422 574.130920,924.868164 573.963318,905.881592 
	C573.792908,886.588440 573.319458,867.298096 572.993347,848.006226 
	C572.653137,827.881958 572.435303,807.754883 571.969360,787.633606 
	C571.538574,769.028198 570.840515,750.429016 570.303406,731.825867 
	C570.275391,730.856689 570.652588,729.875793 570.919434,728.533875 
	C578.355652,728.121094 585.713562,728.074890 593.535522,728.097778 
z"/>
<path fill="#0AB9CC" opacity="1.000000" stroke="none" 
	d="
M624.610596,17.084675 
	C625.001709,41.308952 624.762695,65.454163 625.054504,89.592957 
	C625.520630,128.151825 626.307373,166.707047 627.033752,205.262390 
	C627.195923,213.869675 627.719666,222.469681 627.958923,231.076324 
	C628.008423,232.859314 627.534058,234.656876 627.035400,236.781006 
	C618.506287,227.186646 610.242859,217.259003 601.925171,206.514252 
	C601.580566,190.914536 601.261841,176.132416 601.005615,161.349228 
	C600.379883,125.258316 599.734436,89.167625 599.198975,53.075340 
	C598.991699,39.108078 599.059875,25.136734 599.002563,11.167250 
	C607.407898,13.112410 615.813293,15.057568 624.610596,17.084675 
z"/>
<path fill="#0BB1CF" opacity="1.000000" stroke="none" 
	d="
M598.603577,11.083654 
	C599.059875,25.136734 598.991699,39.108078 599.198975,53.075340 
	C599.734436,89.167625 600.379883,125.258316 601.005615,161.349228 
	C601.261841,176.132416 601.580566,190.914536 601.819397,206.217880 
	C594.141357,197.667984 586.565186,188.553802 578.821777,179.584030 
	C577.895691,178.511337 576.059753,178.224152 574.319641,177.660812 
	C573.663635,175.791626 573.080872,173.839432 573.042358,171.876556 
	C572.644409,151.611771 572.278442,131.346024 572.013245,111.079094 
	C571.626587,81.537262 571.368958,51.993706 570.958374,22.452250 
	C570.887085,17.321196 570.331970,12.196866 570.000854,6.617867 
	C579.402405,7.777555 588.803528,9.388807 598.603577,11.083654 
z"/>
<path fill="#0C94DA" opacity="1.000000" stroke="none" 
	d="
M489.464783,967.902466 
	C489.000519,963.838623 489.051849,959.843140 488.991333,955.849365 
	C488.673920,934.906494 488.327423,913.963928 487.992523,893.021301 
	C487.660736,872.270996 487.342102,851.520508 486.996704,830.770447 
	C486.675781,811.492004 486.355621,792.213501 485.981506,772.936035 
	C485.697754,758.317383 485.329773,743.700439 484.998718,728.624756 
	C492.022217,728.120728 499.046295,728.074707 506.534637,728.556030 
	C507.665955,761.983521 508.462799,794.881714 508.963562,827.784363 
	C509.464661,860.711548 509.668579,893.643127 510.011108,926.572754 
	C510.021515,927.568909 510.180634,928.564270 510.176819,929.559692 
	C510.128021,942.317688 510.062195,955.075684 510.000671,967.833618 
	C503.310059,967.879639 496.619415,967.925659 489.464783,967.902466 
z"/>
<path fill="#09C8C7" opacity="1.000000" stroke="none" 
	d="
M661.999939,728.166992 
	C670.023682,728.121033 678.047424,728.075012 686.535522,728.556030 
	C687.333191,741.879150 687.743958,754.673706 687.982483,767.471497 
	C688.377991,788.694275 688.703430,809.918579 688.984009,831.143188 
	C689.359802,859.575623 689.630249,888.009521 690.038025,916.441467 
	C690.097412,920.576355 690.667786,924.703857 691.001709,928.834717 
	C682.918884,932.210815 674.836060,935.586853 666.367554,938.482422 
	C665.654968,935.370728 665.091492,932.744446 665.037109,930.107666 
	C664.317444,895.218323 663.558655,860.329102 663.035706,825.436523 
	C662.549805,793.015442 662.334473,760.590393 661.999939,728.166992 
z"/>
<path fill="#0CA0D5" opacity="1.000000" stroke="none" 
	d="
M547.535278,728.097656 
	C548.332947,757.111145 548.637939,786.055725 549.009216,814.999390 
	C549.299316,837.616577 549.654541,860.232910 550.012817,882.849182 
	C550.318298,902.135803 550.707214,921.421265 550.981995,940.708313 
	C551.097351,948.804871 551.013306,956.904297 551.010986,965.418213 
	C544.640076,966.213379 538.278076,966.592712 531.457642,966.475098 
	C530.667664,962.846069 530.109436,959.718872 530.041687,956.581055 
	C529.632629,937.635925 529.247070,918.689453 529.031372,899.741333 
	C528.876648,886.152588 529.114441,872.559448 528.972534,858.970398 
	C528.727600,835.528442 528.331604,812.087891 527.964722,788.647339 
	C527.944153,787.330750 527.493591,786.023376 527.445496,784.704407 
	C526.974976,771.790100 526.497192,758.875610 526.130249,745.958191 
	C525.961853,740.031128 526.035339,734.097290 525.999146,728.166504 
	C533.023193,728.120483 540.047180,728.074463 547.535278,728.097656 
z"/>
<path fill="#0F5CEE" opacity="1.000000" stroke="none" 
	d="
M300.137970,926.427979 
	C300.307861,923.162354 300.931305,920.208740 300.952911,917.250671 
	C301.057343,902.946289 301.180847,888.638000 300.964813,874.336121 
	C300.400360,836.967285 299.688599,799.600586 298.978882,762.234131 
	C298.736145,749.453796 298.288666,736.677429 297.999512,723.897888 
	C297.631378,707.627014 297.329193,691.354614 296.997986,674.624878 
	C303.022003,674.119873 309.046631,674.072876 315.534851,674.096252 
	C316.669189,711.189087 317.325714,748.211792 318.017639,785.233887 
	C318.306274,800.678040 318.767365,816.119568 318.979187,831.564636 
	C319.384918,861.148987 319.633423,890.735535 320.038849,920.319885 
	C320.102356,924.952209 320.648590,929.577942 320.960510,934.672241 
	C314.071014,932.337708 307.192596,929.537781 300.137970,926.427979 
z"/>
<path fill="#0ABACC" opacity="1.000000" stroke="none" 
	d="
M620.402222,952.902588 
	C620.001099,934.369690 620.199951,915.902832 619.959534,897.441833 
	C619.418823,855.929504 618.684326,814.419617 617.977356,772.909668 
	C617.728577,758.299500 617.329895,743.691895 616.999146,728.625244 
	C624.022705,728.121155 631.046692,728.074951 638.567688,728.506958 
	C639.376404,731.949463 639.917969,734.910278 639.963867,737.878723 
	C640.357727,763.319763 640.651672,788.762268 640.995911,814.204102 
	C641.317627,837.981445 641.719666,861.757935 641.976990,885.535950 
	C642.108459,897.687622 641.752930,909.848694 642.087341,921.992554 
	C642.309021,930.044067 643.363647,938.072632 644.045410,946.111511 
	C636.297913,948.398132 628.550415,950.684753 620.402222,952.902588 
z"/>
<path fill="#1049F5" opacity="1.000000" stroke="none" 
	d="
M231.998306,674.167297 
	C239.022125,674.120056 246.045959,674.072815 253.534042,674.554443 
	C254.663467,703.489685 255.528915,731.893005 255.943924,760.302979 
	C256.483276,797.225464 256.637726,834.153442 257.033875,871.078247 
	C257.083618,875.713501 257.862274,880.345581 257.829437,884.975830 
	C257.782440,891.596558 257.298492,898.214111 257.001160,904.833069 
	C249.881302,900.605042 242.761490,896.376953 235.402771,891.621094 
	C235.109619,887.652344 235.064713,884.211121 234.999512,880.770264 
	C234.671814,863.477356 234.306686,846.185181 234.015793,828.891663 
	C233.646484,806.935730 233.291183,784.979309 233.010941,763.022156 
	C232.632935,733.404358 232.332214,703.785645 231.998306,674.167297 
z"/>
<path fill="#0AC1C9" opacity="1.000000" stroke="none" 
	d="
M644.438660,946.062378 
	C643.363647,938.072632 642.309021,930.044067 642.087341,921.992554 
	C641.752930,909.848694 642.108459,897.687622 641.976990,885.535950 
	C641.719666,861.757935 641.317627,837.981445 640.995911,814.204102 
	C640.651672,788.762268 640.357727,763.319763 639.963867,737.878723 
	C639.917969,734.910278 639.376404,731.949463 639.031738,728.575928 
	C646.356384,728.120789 653.713989,728.074829 661.535767,728.097961 
	C662.334473,760.590393 662.549805,793.015442 663.035706,825.436523 
	C663.558655,860.329102 664.317444,895.218323 665.037109,930.107666 
	C665.091492,932.744446 665.654968,935.370728 665.991699,938.417969 
	C658.945007,941.227112 651.888489,943.620239 644.438660,946.062378 
z"/>
<path fill="#104FF3" opacity="1.000000" stroke="none" 
	d="
M257.321472,904.990234 
	C257.298492,898.214111 257.782440,891.596558 257.829437,884.975830 
	C257.862274,880.345581 257.083618,875.713501 257.033875,871.078247 
	C256.637726,834.153442 256.483276,797.225464 255.943924,760.302979 
	C255.528915,731.893005 254.663467,703.489685 253.997681,674.625366 
	C260.355103,674.120056 266.713104,674.072754 273.534760,674.096191 
	C274.334930,696.758911 274.627258,719.351685 275.024536,741.942505 
	C275.266785,755.720337 275.697906,769.494751 275.986694,783.271851 
	C276.083221,787.876160 275.938416,792.485291 276.012299,797.090393 
	C276.324066,816.522400 276.688019,835.953552 277.011505,855.385376 
	C277.343323,875.315674 277.650269,895.246460 277.954102,915.653320 
	C271.173950,912.468872 264.407837,908.808105 257.321472,904.990234 
z"/>
<path fill="#07EDB9" opacity="1.000000" stroke="none" 
	d="
M785.358154,875.971985 
	C784.692749,859.193359 784.267090,842.270874 784.011841,825.345886 
	C783.613831,798.949280 783.373657,772.550354 782.966797,746.153931 
	C782.878296,740.407654 782.368958,734.667847 782.026794,728.545898 
	C793.690796,728.120300 805.381348,728.073792 817.536011,728.554810 
	C818.333313,750.592529 818.636292,772.103210 819.009888,793.612671 
	C819.294800,810.017334 819.644104,826.421143 820.048340,842.823242 
	C820.083130,844.237915 820.744080,845.637207 821.114136,847.043640 
	C814.071228,853.029724 807.105774,859.110291 799.957703,864.967957 
	C795.334778,868.756287 790.444702,872.218628 785.358154,875.971985 
z"/>
<path fill="#0C9AD8" opacity="1.000000" stroke="none" 
	d="
M525.535400,728.097290 
	C526.035339,734.097290 525.961853,740.031128 526.130249,745.958191 
	C526.497192,758.875610 526.974976,771.790100 527.445496,784.704407 
	C527.493591,786.023376 527.944153,787.330750 527.964722,788.647339 
	C528.331604,812.087891 528.727600,835.528442 528.972534,858.970398 
	C529.114441,872.559448 528.876648,886.152588 529.031372,899.741333 
	C529.247070,918.689453 529.632629,937.635925 530.041687,956.581055 
	C530.109436,959.718872 530.667664,962.846069 530.999817,966.405762 
	C526.132263,967.222229 521.266846,967.651917 516.394592,967.978882 
	C514.580872,968.100464 512.750916,967.981506 510.464539,967.902954 
	C510.062195,955.075684 510.128021,942.317688 510.176819,929.559692 
	C510.180634,928.564270 510.021515,927.568909 510.011108,926.572754 
	C509.668579,893.643127 509.464661,860.711548 508.963562,827.784363 
	C508.462799,794.881714 507.665955,761.983521 506.998535,728.625488 
	C513.022644,728.121033 519.047180,728.074524 525.535400,728.097290 
z"/>
<path fill="#09CFC4" opacity="1.000000" stroke="none" 
	d="
M691.372070,928.898193 
	C690.667786,924.703857 690.097412,920.576355 690.038025,916.441467 
	C689.630249,888.009521 689.359802,859.575623 688.984009,831.143188 
	C688.703430,809.918579 688.377991,788.694275 687.982483,767.471497 
	C687.743958,754.673706 687.333191,741.879150 686.999573,728.625244 
	C694.690125,728.121338 702.380981,728.075256 710.536011,728.098267 
	C711.000183,738.660156 710.902161,749.154114 711.019653,759.645569 
	C711.293579,784.099976 711.625916,808.553894 712.023621,833.006531 
	C712.263672,847.766968 712.654785,862.524963 713.007263,877.283386 
	C713.324768,890.578552 713.681824,903.872803 714.029846,917.643677 
	C706.606262,921.733826 699.174316,925.347717 691.372070,928.898193 
z"/>
<path fill="#1143F7" opacity="1.000000" stroke="none" 
	d="
M231.534607,674.096069 
	C232.332214,703.785645 232.632935,733.404358 233.010941,763.022156 
	C233.291183,784.979309 233.646484,806.935730 234.015793,828.891663 
	C234.306686,846.185181 234.671814,863.477356 234.999512,880.770264 
	C235.064713,884.211121 235.109619,887.652344 235.083099,891.467163 
	C228.082352,887.139709 221.162399,882.438477 214.108856,876.981201 
	C213.651047,872.923279 213.103470,869.625793 213.038971,866.318848 
	C212.633453,845.525146 212.345291,824.729126 211.998871,803.934265 
	C211.680191,784.804871 211.305161,765.676392 211.012726,746.546631 
	C210.643890,722.420654 210.333679,698.293762 209.998184,674.167297 
	C217.022430,674.119873 224.046677,674.072388 231.534607,674.096069 
z"/>
<path fill="#1136FC" opacity="1.000000" stroke="none" 
	d="
M167.090103,839.417297 
	C167.295441,833.168579 167.945435,827.221619 167.904907,821.279480 
	C167.838028,811.476440 167.187500,801.678528 167.037125,791.874573 
	C166.873581,781.213196 167.111115,770.546021 166.976028,759.883850 
	C166.723068,739.917664 166.382080,719.952026 165.965027,699.988586 
	C165.791519,691.683655 165.329224,683.384766 164.997482,674.625122 
	C173.354401,674.119629 181.712097,674.072021 190.534073,674.553833 
	C191.568375,712.967529 192.218719,750.850830 192.677658,788.736450 
	C192.943619,810.692017 192.947311,832.651428 192.921570,854.608948 
	C192.919220,856.614746 191.840454,858.619202 191.261520,860.624329 
	C183.249191,853.656677 175.236877,846.688965 167.090103,839.417297 
z"/>
<path fill="#06FDB3" opacity="1.000000" stroke="none" 
	d="
M844.001038,728.166809 
	C869.024902,728.120422 894.048767,728.074036 919.536377,728.097046 
	C908.890381,747.669128 896.354126,766.222656 881.961792,783.432190 
	C870.491211,797.147827 858.451538,810.387390 846.192383,823.588623 
	C845.146790,817.576111 844.118042,811.816467 844.078308,806.049988 
	C843.899231,780.089966 844.000671,754.128052 844.001038,728.166809 
z"/>
<path fill="#113DF9" opacity="1.000000" stroke="none" 
	d="
M191.344711,860.752319 
	C191.840454,858.619202 192.919220,856.614746 192.921570,854.608948 
	C192.947311,832.651428 192.943619,810.692017 192.677658,788.736450 
	C192.218719,750.850830 191.568375,712.967529 190.997711,674.625183 
	C197.021851,674.119629 203.046616,674.072083 209.534790,674.095947 
	C210.333679,698.293762 210.643890,722.420654 211.012726,746.546631 
	C211.305161,765.676392 211.680191,784.804871 211.998871,803.934265 
	C212.345291,824.729126 212.633453,845.525146 213.038971,866.318848 
	C213.103470,869.625793 213.651047,872.923279 213.966400,876.670898 
	C207.173447,872.120667 200.389374,867.124756 193.104828,861.797729 
	C192.313797,861.265320 192.023239,861.064026 191.732681,860.862793 
	C191.732666,860.862793 191.427887,860.880249 191.344711,860.752319 
z"/>
<path fill="#07F6B5" opacity="1.000000" stroke="none" 
	d="
M843.536865,728.097168 
	C844.000671,754.128052 843.899231,780.089966 844.078308,806.049988 
	C844.118042,811.816467 845.146790,817.576111 845.883057,823.723999 
	C837.943848,831.663879 829.841858,839.218567 821.427002,846.908447 
	C820.744080,845.637207 820.083130,844.237915 820.048340,842.823242 
	C819.644104,826.421143 819.294800,810.017334 819.009888,793.612671 
	C818.636292,772.103210 818.333313,750.592529 818.000061,728.624390 
	C826.357666,728.120117 834.715149,728.073792 843.536865,728.097168 
z"/>
<path fill="#0AB9CC" opacity="1.000000" stroke="none" 
	d="
M627.026794,17.712479 
	C626.834900,17.843849 626.576050,17.686029 626.180908,17.325111 
	C626.323792,17.264935 626.628845,17.365360 627.026794,17.712479 
z"/>
<path fill="#1136FC" opacity="1.000000" stroke="none" 
	d="
M191.860626,861.129883 
	C192.023239,861.064026 192.313797,861.265320 192.790375,861.650940 
	C192.647125,861.689270 192.317841,861.543152 191.860626,861.129883 
z"/>
<path fill="#0C9BD7" opacity="1.000000" stroke="none" 
	d="
M530.101379,532.221436 
	C522.439941,541.762146 514.778503,551.302917 506.834229,561.195862 
	C506.013245,560.187927 505.448792,559.494934 505.042084,558.185059 
	C505.427185,555.955750 505.890991,554.335632 505.839386,552.732117 
	C505.653625,546.961853 505.115051,541.199890 505.030487,535.430054 
	C504.630402,508.139252 504.379272,480.846313 503.989349,453.555359 
	C503.735046,435.758240 503.333954,417.963257 502.998627,400.167297 
	C510.689056,400.120972 518.379456,400.074615 526.534668,400.555176 
	C527.332947,428.216919 527.696045,455.351471 527.983948,482.486786 
	C528.084717,491.984924 527.736877,501.494720 528.086853,510.981018 
	C528.348572,518.076294 529.401001,525.142395 530.101379,532.221436 
z"/>
<path fill="#0C94DA" opacity="1.000000" stroke="none" 
	d="
M502.534546,400.098206 
	C503.333954,417.963257 503.735046,435.758240 503.989349,453.555359 
	C504.379272,480.846313 504.630402,508.139252 505.030487,535.430054 
	C505.115051,541.199890 505.653625,546.961853 505.839386,552.732117 
	C505.890991,554.335632 505.427185,555.955750 504.928040,557.871460 
	C496.738190,546.910034 488.820129,535.645325 480.884338,523.546143 
	C480.911072,501.913239 480.971680,481.114746 480.991913,460.316223 
	C480.999817,452.188080 481.123657,444.052307 480.826843,435.933472 
	C480.390747,424.004852 479.624634,412.088318 478.999115,400.166626 
	C486.689575,400.120789 494.380005,400.074921 502.534546,400.098206 
z"/>
<path fill="#0CA3D4" opacity="1.000000" stroke="none" 
	d="
M530.395752,532.050049 
	C529.401001,525.142395 528.348572,518.076294 528.086853,510.981018 
	C527.736877,501.494720 528.084717,491.984924 527.983948,482.486786 
	C527.696045,455.351471 527.332947,428.216919 526.998718,400.624084 
	C536.355957,400.120178 545.713989,400.074249 555.536072,400.555145 
	C556.000916,427.520996 555.880676,453.960968 556.095459,480.398254 
	C556.143433,486.305389 557.366943,492.202972 558.049194,498.104950 
	C548.929504,509.362854 539.809875,520.620789 530.395752,532.050049 
z"/>
<path fill="#0D8CDC" opacity="1.000000" stroke="none" 
	d="
M478.535034,400.097198 
	C479.624634,412.088318 480.390747,424.004852 480.826843,435.933472 
	C481.123657,444.052307 480.999817,452.188080 480.991913,460.316223 
	C480.971680,481.114746 480.911072,501.913239 480.812042,523.234253 
	C470.206665,508.768097 459.655884,493.779358 449.114441,478.041992 
	C449.415833,474.666260 449.985901,472.036072 449.956482,469.412567 
	C449.697784,446.329224 449.332367,423.247131 448.998535,400.164642 
	C458.689331,400.119019 468.380157,400.073395 478.535034,400.097198 
z"/>
<path fill="#08D9C0" opacity="1.000000" stroke="none" 
	d="
M742.536377,400.097046 
	C743.007080,412.295685 742.788696,424.430389 743.070190,436.553528 
	C743.547302,457.102448 744.387817,477.642700 744.946533,498.190155 
	C745.026733,501.139526 744.387573,504.108521 744.057739,507.481750 
	C732.408569,493.873413 720.783081,479.851807 709.056396,465.040161 
	C708.970093,442.889099 708.985046,421.528076 709.000061,400.167053 
	C720.024109,400.120667 731.048096,400.074310 742.536377,400.097046 
z"/>
<path fill="#0BADD1" opacity="1.000000" stroke="none" 
	d="
M558.338501,497.932800 
	C557.366943,492.202972 556.143433,486.305389 556.095459,480.398254 
	C555.880676,453.960968 556.000916,427.520996 556.000244,400.623962 
	C565.690735,400.119995 575.381104,400.074005 585.625122,400.494629 
	C586.452515,403.253082 586.951904,405.543793 586.963257,407.836914 
	C587.035706,422.443573 586.885376,437.052460 587.100952,451.656311 
	C587.142639,454.478210 588.476746,457.281036 589.214600,460.092712 
	C579.018982,472.648682 568.823364,485.204651 558.338501,497.932800 
z"/>
<path fill="#0F83E0" opacity="1.000000" stroke="none" 
	d="
M448.534485,400.095581 
	C449.332367,423.247131 449.697784,446.329224 449.956482,469.412567 
	C449.985901,472.036072 449.415833,474.666260 449.038208,477.711609 
	C442.260101,468.667633 435.526733,459.234039 428.884369,449.736755 
	C418.403137,434.750580 407.979126,419.724365 397.543732,404.706177 
	C396.637451,403.401886 395.826843,402.031158 394.547607,400.026550 
	C412.900391,400.026550 430.485382,400.026550 448.534485,400.095581 
z"/>
<path fill="#09CFC4" opacity="1.000000" stroke="none" 
	d="
M708.535889,400.098083 
	C708.985046,421.528076 708.970093,442.889099 708.937439,464.732574 
	C691.279785,443.842285 673.639832,422.469574 655.118591,400.029114 
	C673.508606,400.029114 690.790161,400.029114 708.535889,400.098083 
z"/>
<path fill="#0AB4CE" opacity="1.000000" stroke="none" 
	d="
M589.500977,459.930847 
	C588.476746,457.281036 587.142639,454.478210 587.100952,451.656311 
	C586.885376,437.052460 587.035706,422.443573 586.963257,407.836914 
	C586.951904,405.543793 586.452515,403.253082 586.089233,400.563721 
	C603.125183,400.166199 620.250732,400.166199 638.610413,400.166199 
	C622.017578,420.422607 605.902466,440.095795 589.500977,459.930847 
z"/>
<path fill="#0E76E5" opacity="1.000000" stroke="none" 
	d="
M387.786377,706.076599 
	C387.017120,704.430542 386.104553,702.607117 386.070801,700.767517 
	C385.913727,692.208374 385.999786,683.644775 385.998352,674.624756 
	C394.967316,674.166809 403.936768,674.166809 414.098297,674.166809 
	C405.098633,685.126892 396.573273,695.509338 387.786377,706.076599 
z"/>
</svg>